<svg width="23" height="27" viewBox="0 0 23 27" fill="none" xmlns="http://www.w3.org/2000/svg">
<path fill-rule="evenodd" clip-rule="evenodd" d="M16.765 0.464325C16.8811 1.9814 16.4017 3.48402 15.4284 4.65307C14.4842 5.82819 13.0535 6.50505 11.5467 6.48952C11.4509 5.01612 11.9443 3.56503 12.9183 2.45586C13.9047 1.33166 15.2782 0.62059 16.765 0.464325ZM21.5305 9.37835C19.7972 10.4446 18.7306 12.3251 18.7044 14.3608C18.7069 16.664 20.0853 18.7426 22.2053 19.6398C21.7976 20.9651 21.183 22.2176 20.3843 23.3508C19.3117 24.9563 18.1871 26.5248 16.4022 26.5538C15.5533 26.5734 14.9802 26.3291 14.3831 26.0746C13.7603 25.8091 13.1112 25.5325 12.0956 25.5325C11.0185 25.5325 10.3404 25.818 9.68643 26.0934C9.12127 26.3314 8.57411 26.5619 7.80298 26.5939C6.10309 26.6569 4.80395 24.8803 3.69236 23.2899C1.47059 20.042 -0.259453 14.1367 2.05992 10.1186C3.14906 8.16023 5.18549 6.91753 7.42412 6.84516C8.38823 6.82531 9.31336 7.19713 10.1245 7.52312C10.7447 7.77243 11.2983 7.99493 11.7517 7.99493C12.1502 7.99493 12.6883 7.78121 13.3155 7.53215C14.3034 7.13981 15.5122 6.65975 16.7441 6.78913C18.6582 6.84906 20.4321 7.80862 21.5305 9.37835Z" fill="white"/>
</svg>
