<svg width="120" height="40" viewBox="0 0 120 40" fill="none" xmlns="http://www.w3.org/2000/svg">
<path d="M110.067 -0.000114141H9.52882C9.16234 -0.000114141 8.80026 -0.000114141 8.43476 0.00188586C8.1288 0.00388586 7.82527 0.00969586 7.51637 0.0145859C6.8453 0.0224877 6.17581 0.0815621 5.51371 0.191296C4.85254 0.303418 4.21208 0.514802 3.614 0.818296C3.01664 1.12436 2.47082 1.52205 1.99634 1.99696C1.51937 2.47052 1.12177 3.0179 0.818846 3.61805C0.515083 4.21699 0.304453 4.85882 0.19423 5.52137C0.0829599 6.18307 0.0230842 6.85241 0.0151407 7.52337C0.00586639 7.82997 0.00488699 8.13759 0 8.44423V31.5585C0.00488699 31.869 0.00586639 32.1698 0.0151407 32.4804C0.0230866 33.1513 0.0829623 33.8206 0.19423 34.4823C0.304149 35.1452 0.514791 35.7874 0.818846 36.3866C1.12164 36.9848 1.51929 37.53 1.99634 38.0009C2.46903 38.4779 3.0152 38.8759 3.614 39.1796C4.21208 39.4839 4.85246 39.6965 5.51371 39.8104C6.17592 39.9192 6.84535 39.9783 7.51637 39.9872C7.82527 39.994 8.1288 39.9979 8.43476 39.9979C8.80025 39.9999 9.16236 39.9999 9.52882 39.9999H110.067C110.426 39.9999 110.791 39.9999 111.15 39.9979C111.455 39.9979 111.767 39.994 112.072 39.9872C112.741 39.9788 113.41 39.9197 114.07 39.8104C114.734 39.6957 115.377 39.4831 115.978 39.1796C116.576 38.8757 117.121 38.4777 117.594 38.0009C118.07 37.5281 118.468 36.9833 118.775 36.3866C119.076 35.787 119.285 35.1448 119.393 34.4823C119.505 33.8205 119.567 33.1514 119.579 32.4804C119.583 32.1698 119.583 31.869 119.583 31.5585C119.59 31.1952 119.59 30.8339 119.59 30.4647V9.53602C119.59 9.16981 119.59 8.80653 119.583 8.44423C119.583 8.13759 119.583 7.82997 119.579 7.52333C119.567 6.85231 119.505 6.18312 119.393 5.52133C119.285 4.85917 119.076 4.21739 118.775 3.61801C118.158 2.41508 117.179 1.43591 115.978 0.818206C115.377 0.515453 114.734 0.304126 114.07 0.191206C113.41 0.0809886 112.742 0.0218936 112.072 0.0144459C111.767 0.00956586 111.455 0.00370586 111.15 0.00175586C110.791 -0.000244141 110.426 -0.000244141 110.067 -0.000244141V-0.000114141Z" fill="#A6A6A6"/>
<path d="M8.43966 39.125C8.13517 39.125 7.83803 39.1211 7.53593 39.1143C6.91009 39.1061 6.28572 39.0516 5.66794 38.9512C5.09188 38.8519 4.53384 38.6673 4.01222 38.4033C3.49538 38.1415 3.02398 37.7983 2.61607 37.3867C2.20227 36.98 1.85776 36.5082 1.59619 35.9902C1.33174 35.4688 1.14873 34.9099 1.05353 34.333C0.950714 33.7131 0.895088 33.0863 0.887129 32.458C0.880792 32.2471 0.872498 31.5449 0.872498 31.5449V8.44434C0.872498 8.44434 0.881332 7.75293 0.887179 7.5498C0.8948 6.92248 0.950102 6.29665 1.05261 5.67773C1.14799 5.09925 1.33114 4.53875 1.59573 4.01563C1.85634 3.49794 2.19894 3.02586 2.61025 2.61768C3.0211 2.20562 3.49401 1.8606 4.01173 1.59521C4.53215 1.33209 5.08914 1.14873 5.66403 1.05127C6.28384 0.949836 6.91038 0.894996 7.53839 0.88721L8.44015 0.875H111.146L112.058 0.8877C112.68 0.895099 113.301 0.94945 113.915 1.05029C114.496 1.14898 115.059 1.33362 115.585 1.59814C116.622 2.13299 117.466 2.97916 117.999 4.01807C118.259 4.53758 118.439 5.09351 118.534 5.66699C118.637 6.29099 118.695 6.92174 118.707 7.5542C118.71 7.8374 118.71 8.1416 118.71 8.44434C118.718 8.81934 118.718 9.17627 118.718 9.53613V30.4648C118.718 30.8281 118.718 31.1826 118.71 31.54C118.71 31.8652 118.71 32.1631 118.706 32.4697C118.695 33.0909 118.637 33.7104 118.535 34.3232C118.442 34.9043 118.26 35.4675 117.996 35.9932C117.732 36.5056 117.39 36.9733 116.981 37.3789C116.573 37.7927 116.1 38.1379 115.582 38.4014C115.057 38.6674 114.495 38.8527 113.915 38.9512C113.298 39.0522 112.673 39.1067 112.047 39.1143C111.755 39.1211 111.448 39.125 111.15 39.125L110.067 39.127L8.43966 39.125Z" fill="black"/>
<path fill-rule="evenodd" clip-rule="evenodd" d="M74.6333 29.0759C72.9995 29.0759 71.804 28.2674 71.6664 27.0359L69.7652 27.0359C69.8852 29.2819 71.7434 30.7029 74.4956 30.7029C77.4372 30.7029 79.2867 29.2478 79.2867 26.9245C79.2867 25.1082 78.2287 24.0847 75.6824 23.4822L74.3151 23.1462C72.7155 22.7507 72.0616 22.2341 72.0616 21.3562C72.0616 20.2546 73.0854 19.4978 74.5815 19.4978C76.0777 19.4978 77.1015 20.2458 77.2137 21.4851H79.0886C79.028 19.3425 77.2303 17.8708 74.6079 17.8708C71.9582 17.8708 70.0921 19.3425 70.0921 21.4851C70.0921 23.2156 71.1501 24.282 73.429 24.8328L75.0373 25.2205C76.6457 25.616 77.325 26.1931 77.325 27.157C77.325 28.2674 76.1987 29.0759 74.6333 29.0759ZM42.2763 27.1395H37.5458L36.4097 30.4959H34.4061L38.8867 18.0779H40.9685L45.4491 30.4959H43.4113L42.2763 27.1395ZM38.0357 25.5906H41.7854L39.9369 20.1434H39.8852L38.0357 25.5906ZM51.3498 30.5906C53.6208 30.5906 55.1257 28.783 55.1257 25.9695C55.1257 23.1639 53.612 21.3475 51.3156 21.3475C50.1339 21.3093 49.027 21.9243 48.4346 22.948H48.4004V21.4422H46.6026V33.491H48.4599V29.0066H48.5029C49.0701 30.0368 50.1759 30.6521 51.3498 30.5906ZM53.2168 25.9695C53.2168 24.1365 52.2701 22.9314 50.8257 22.9314C49.4066 22.9314 48.4521 24.1619 48.4521 25.9695C48.4521 27.7938 49.4066 29.0154 50.8257 29.0154C52.2701 29.0154 53.2168 27.8191 53.2168 25.9695ZM61.3085 30.5906C63.5795 30.5906 65.0845 28.783 65.0845 25.9695C65.0845 23.1639 63.5707 21.3475 61.2743 21.3475C60.0926 21.3093 58.9857 21.9243 58.3932 22.9481H58.3591V21.4422H56.5614V33.491H58.4186V29.0066H58.4616C59.0288 30.0368 60.1346 30.6521 61.3085 30.5906ZM63.1755 25.9695C63.1755 24.1365 62.2288 22.9314 60.7844 22.9314C59.3653 22.9314 58.4109 24.1619 58.4109 25.9695C58.4109 27.7938 59.3653 29.0154 60.7844 29.0154C62.2288 29.0154 63.1755 27.8191 63.1755 25.9695ZM83.2949 19.2996V21.4422H85.0155V22.9139H83.2949V27.9051C83.2949 28.6805 83.6394 29.0418 84.3958 29.0418C84.6001 29.0382 84.804 29.0239 85.0068 28.9988V30.4617C84.6667 30.5253 84.321 30.5541 83.9752 30.5476C82.1433 30.5476 81.4289 29.8592 81.4289 28.1033V22.9139H80.1133V21.4422H81.4289V19.2996H83.2949ZM90.3034 21.3309C87.6888 21.3309 86.0121 23.1209 86.0121 25.9695C86.0121 28.826 87.6722 30.6082 90.3034 30.6082C92.9356 30.6082 94.5957 28.826 94.5957 25.9695C94.5957 23.1209 92.9268 21.3309 90.3034 21.3309ZM92.7033 25.9695C92.7033 24.0154 91.8083 22.8621 90.3034 22.8621C88.7984 22.8621 87.9045 24.0242 87.9045 25.9695C87.9045 27.9314 88.7984 29.076 90.3034 29.076C91.8083 29.076 92.7032 27.9314 92.7032 25.9695H92.7033ZM97.8982 21.4422H96.1269L96.1269 30.4959H97.9841V25.1258C97.9223 24.5825 98.1008 24.0393 98.4729 23.6388C98.845 23.2383 99.3734 23.0206 99.9194 23.0428C100.202 23.0345 100.484 23.0725 100.754 23.1551V21.4168C100.545 21.37 100.332 21.3467 100.118 21.3474C99.0966 21.3084 98.1882 21.9912 97.9412 22.9832H97.8982V21.4422ZM109.317 27.8367C109.067 29.4803 107.468 30.6082 105.421 30.6082C102.789 30.6082 101.155 28.8435 101.155 26.0125C101.155 23.1727 102.798 21.3309 105.343 21.3309C107.846 21.3309 109.42 23.0516 109.42 25.7967V26.4334H103.03V26.5457C102.97 27.2197 103.203 27.8869 103.669 28.3776C104.134 28.8682 104.788 29.135 105.464 29.1101C106.365 29.1946 107.215 28.6768 107.553 27.8367L109.317 27.8367ZM107.562 25.1346H103.039C103.037 24.5233 103.28 23.9367 103.712 23.5052C104.145 23.0737 104.732 22.8331 105.343 22.8367C105.949 22.8237 106.533 23.0643 106.954 23.5004C107.376 23.9366 107.596 24.5289 107.562 25.1346Z" fill="white"/>
<path fill-rule="evenodd" clip-rule="evenodd" d="M59.0574 8.43701H59.9456V14.6978H59.0574V8.43701ZM39.9072 9.54888C39.3637 8.97456 38.5914 8.6744 37.8029 8.73101H35.649V14.6979H37.8029C39.5792 14.6979 40.6088 13.6021 40.6088 11.6959C40.7082 10.9112 40.4507 10.1232 39.9072 9.54888ZM37.6995 13.854H36.5752V9.57422H37.6995C38.26 9.5431 38.805 9.76423 39.1856 10.1771C39.5661 10.5901 39.7424 11.1515 39.666 11.708C39.7483 12.2668 39.5746 12.833 39.1931 13.2493C38.8116 13.6656 38.263 13.8877 37.6995 13.854ZM41.655 12.4444C41.5779 11.6372 41.9646 10.8561 42.6532 10.4286C43.3417 10.0011 44.2129 10.0011 44.9014 10.4286C45.5899 10.8561 45.9767 11.6372 45.8995 12.4444C45.9781 13.2523 45.5917 14.035 44.9026 14.4634C44.2135 14.8918 43.3411 14.8918 42.6519 14.4634C41.9628 14.035 41.5764 13.2523 41.655 12.4444ZM43.7788 10.8975C44.5478 10.8975 44.986 11.4683 44.986 12.4444H44.986C44.986 13.4243 44.5478 13.9946 43.7788 13.9947C43.0068 13.9947 42.5725 13.4283 42.5725 12.4444C42.5725 11.4683 43.0068 10.8975 43.7788 10.8975ZM51.5416 14.6978H50.6202L49.6902 11.3814H49.6199L48.6937 14.6978H47.7812L46.5407 10.1948H47.4415L48.2477 13.6308H48.3141L49.2393 10.1948H50.0913L51.0165 13.6308H51.0868L51.889 10.1948H52.7771L51.5416 14.6978ZM54.6754 10.1948H53.8204L53.8204 14.6978H54.7085V12.0635C54.6767 11.7638 54.7772 11.4652 54.9837 11.2458C55.1903 11.0265 55.4822 10.9084 55.7831 10.9224C56.4399 10.9224 56.7542 11.2822 56.7542 12.0059V14.6977H57.6423V11.7827C57.7074 11.3424 57.5689 10.8964 57.2659 10.5706C56.9628 10.2448 56.5282 10.0745 56.0847 10.1079C55.5118 10.0613 54.9725 10.3835 54.7417 10.9102H54.6754V10.1948ZM62.1785 10.4285C61.4899 10.8561 61.1031 11.6372 61.1802 12.4444C61.1016 13.2524 61.4881 14.035 62.1773 14.4634C62.8664 14.8918 63.7388 14.8918 64.428 14.4634C65.1172 14.035 65.5036 13.2524 65.4251 12.4444C65.5022 11.6372 65.1154 10.8561 64.4268 10.4285C63.7383 10.001 62.867 10.001 62.1785 10.4285ZM64.5111 12.4444C64.5111 11.4683 64.0729 10.8975 63.3038 10.8975C62.5319 10.8975 62.0976 11.4683 62.0976 12.4444C62.0976 13.4283 62.5319 13.9947 63.3038 13.9947C64.0729 13.9946 64.5111 13.4243 64.5111 12.4444ZM68.0338 12.0801C66.9632 12.1465 66.3601 12.6138 66.3601 13.4243C66.3616 13.8087 66.5255 14.1744 66.8113 14.4312C67.0971 14.6879 67.4781 14.8117 67.8601 14.772C68.4051 14.7972 68.9215 14.5271 69.2118 14.065H69.2821V14.6978H70.137V11.6211C70.137 10.6699 69.5007 10.1079 68.3725 10.1079C67.3517 10.1079 66.6246 10.604 66.5338 11.3775H67.3936C67.4922 11.0591 67.8357 10.877 68.3315 10.877C68.9386 10.877 69.2528 11.1455 69.2528 11.6211V12.0098L68.0338 12.0801ZM69.2528 13.0396V12.6631L68.1539 12.7334C67.5342 12.7749 67.2531 12.9859 67.2531 13.3828C67.2531 13.7881 67.6044 14.0239 68.0876 14.0239C68.3736 14.0529 68.6591 13.9645 68.8787 13.7789C69.0984 13.5934 69.2334 13.3266 69.2528 13.0396ZM73.1723 10.1201C72.0353 10.1201 71.3043 11.0215 71.3043 12.4444C71.3043 13.8706 72.0275 14.772 73.1723 14.772C73.7527 14.7934 74.2971 14.4907 74.5855 13.9863H74.6558V14.6978H75.5068V8.43701H74.6187V10.9101H74.5523C74.2842 10.4015 73.7464 10.0937 73.1723 10.1201ZM72.2217 12.4444C72.2217 13.3994 72.6716 13.9741 73.4241 13.9741C74.1727 13.9741 74.6353 13.3911 74.6353 12.4483C74.6353 11.5098 74.1678 10.9185 73.4241 10.9185C72.6765 10.9185 72.2217 11.4971 72.2217 12.4444H72.2217ZM80.1794 10.4286C79.4909 10.8561 79.1041 11.6372 79.1813 12.4444C79.1027 13.2523 79.4891 14.035 80.1782 14.4634C80.8673 14.8918 81.7397 14.8918 82.4288 14.4634C83.118 14.035 83.5044 13.2523 83.4258 12.4444C83.5029 11.6372 83.1161 10.8561 82.4276 10.4286C81.7391 10.0011 80.8679 10.0011 80.1794 10.4286ZM82.5122 12.4444C82.5122 11.4683 82.074 10.8975 81.305 10.8975C80.533 10.8975 80.0987 11.4683 80.0987 12.4444C80.0987 13.4283 80.533 13.9947 81.305 13.9947C82.074 13.9946 82.5122 13.4243 82.5122 12.4444ZM85.4723 10.1948H84.6174V14.6978H85.5055V12.0635C85.4736 11.7638 85.5741 11.4652 85.7807 11.2458C85.9872 11.0265 86.2792 10.9084 86.58 10.9224C87.2369 10.9224 87.5511 11.2822 87.5511 12.0059V14.6977H88.4392V11.7827C88.5043 11.3424 88.3658 10.8964 88.0628 10.5706C87.7598 10.2448 87.3251 10.0745 86.8816 10.1079C86.3088 10.0613 85.7695 10.3835 85.5387 10.9102H85.4723V10.1948ZM93.4576 9.07374V10.2153H94.4326V10.9639H93.4576V13.2793C93.4576 13.751 93.6519 13.9575 94.094 13.9575C94.2072 13.9572 94.3202 13.9503 94.4326 13.937V14.6773C94.2731 14.7058 94.1115 14.721 93.9495 14.7227C92.9619 14.7227 92.5685 14.375 92.5685 13.5068V10.9638H91.8541V10.2153H92.5685V9.07374H93.4576ZM96.5261 8.43701H95.6458L95.6458 14.6977H96.5339V12.0679C96.5065 11.7589 96.6167 11.4535 96.8352 11.2334C97.0536 11.0133 97.358 10.9009 97.667 10.9263C98.2945 10.9263 98.6293 11.2905 98.6293 12.0098V14.6978H99.5183V11.7905C99.5771 11.3525 99.4377 10.9111 99.138 10.5864C98.8383 10.2618 98.4095 10.0878 97.9685 10.1118C97.387 10.0646 96.8382 10.3872 96.5963 10.9185H96.5261V8.43701ZM104.697 13.4819C104.448 14.3313 103.626 14.8801 102.747 14.7847C102.147 14.8005 101.57 14.5516 101.17 14.1041C100.769 13.6565 100.586 13.0555 100.668 12.4605C100.588 11.8638 100.771 11.2618 101.169 10.8105C101.567 10.3591 102.141 10.1028 102.743 10.1079C103.995 10.1079 104.75 10.9639 104.75 12.3779V12.688H101.573V12.7378C101.545 13.072 101.659 13.4025 101.887 13.6481C102.115 13.8936 102.436 14.0315 102.771 14.0278C103.206 14.08 103.629 13.8643 103.842 13.4819L104.697 13.4819ZM103.846 12.0308H101.573C101.569 11.7203 101.69 11.4213 101.91 11.2017C102.129 10.982 102.428 10.8604 102.738 10.8643C103.044 10.8572 103.339 10.9799 103.55 11.2021C103.761 11.4242 103.868 11.7252 103.846 12.0308Z" fill="white"/>
<path fill-rule="evenodd" clip-rule="evenodd" d="M23.1376 8.72021C23.2343 9.98445 22.8347 11.2366 22.0237 12.2108C21.2369 13.1901 20.0446 13.7542 18.7889 13.7412C18.7091 12.5134 19.1203 11.3041 19.9319 10.3798C20.7539 9.44299 21.8985 8.85044 23.1376 8.72021ZM27.1088 16.1486C25.6643 17.0371 24.7755 18.6042 24.7537 20.3006C24.7557 22.22 25.9045 23.9521 27.6711 24.6998C27.3313 25.8042 26.8192 26.8479 26.1536 27.7923C25.2598 29.1302 24.3226 30.4373 22.8352 30.4614C22.1277 30.4778 21.6502 30.2742 21.1526 30.0621C20.6336 29.8409 20.0927 29.6103 19.2464 29.6103C18.3488 29.6103 17.7837 29.8483 17.2387 30.0778C16.7677 30.2761 16.3118 30.4682 15.6692 30.4948C14.2526 30.5473 13.17 29.0669 12.2436 27.7415C10.3922 25.0349 8.95047 20.1139 10.8833 16.7654C11.7909 15.1335 13.4879 14.0979 15.3535 14.0376C16.1569 14.021 16.9278 14.3309 17.6037 14.6025C18.1206 14.8103 18.582 14.9957 18.9597 14.9957C19.2918 14.9957 19.7403 14.8176 20.2629 14.6101C21.0862 14.2831 22.0935 13.8831 23.1201 13.9909C24.7152 14.0408 26.1934 14.8405 27.1088 16.1486Z" fill="white"/>
</svg>
