<svg width="55" height="40" viewBox="0 0 55 40" fill="none" xmlns="http://www.w3.org/2000/svg">
<path fill-rule="evenodd" clip-rule="evenodd" d="M0 5V15V20V30H5V20H10V30H15V20V15V5V0H10H5H0V5ZM10 5H5V15H10V5ZM25 0H20V5V15V20V30H25V20H28.3333L30 30H35L33.3333 20H35V15V5V0H30H25ZM30 15H27.5H25V5H30V15ZM40 0H45H50H55V5V25H52.5L55 30H45H40V25V5V0ZM45 5H50V25H45V5Z" fill="white"/>
<path fill-rule="evenodd" clip-rule="evenodd" d="M0 35L1.77293 40H2.48021L4.25 35H3.51128L2.125 38.9993L0.741864 35H0ZM11 35V40H11.75V35H11ZM19.4572 39.2852H22V40H18.75V35H21.9371V35.7148H19.4572V37.0363H21.4217V37.751H19.4572V39.2852ZM33.186 38.8215L32.1032 35H31.4L30.3171 38.8215L29.2343 35H28.5L29.9655 40H30.6687L31.7516 36.2169L32.8344 40H33.5345L35 35H34.2688L33.186 38.8215ZM42.4572 39.2852H45V40H41.75V35H44.9371V35.7148H42.4572V37.0363H44.4217V37.751H42.4572V39.2852ZM51.5 40V35H53.4114C53.8312 35 54.1793 35.1476 54.4557 35.4428C54.7321 35.738 54.8703 36.103 54.8703 36.5377C54.8703 36.7422 54.8386 36.9334 54.7753 37.1112C54.712 37.2891 54.6361 37.4291 54.5475 37.5314C54.4589 37.6337 54.3703 37.7232 54.2816 37.7999C54.193 37.8766 54.1171 37.9289 54.0538 37.9568L53.962 38.0021L55 40H54.2215L53.25 38.0718H52.212V40H51.5ZM53.943 37.1199C54.0844 36.9642 54.1551 36.7695 54.1551 36.5359C54.1551 36.3023 54.0839 36.107 53.9415 35.9501C53.799 35.7932 53.6224 35.7148 53.4114 35.7148H52.212V37.357H53.4114C53.6224 37.357 53.7996 37.278 53.943 37.1199Z" fill="white"/>
</svg>
