<svg width="32" height="32" viewBox="0 0 32 32" fill="none" xmlns="http://www.w3.org/2000/svg">
<path fill-rule="evenodd" clip-rule="evenodd" d="M14.8028 9.07167L15.5956 8.2583C15.9313 7.9139 16.4741 7.9139 16.8062 8.2583L23.7482 15.3771C24.0839 15.7215 24.0839 16.2785 23.7482 16.6192L16.8062 23.7417C16.4705 24.0861 15.9277 24.0861 15.5956 23.7417L14.8028 22.9283C14.4636 22.5803 14.4707 22.0124 14.8171 21.6716L19.1202 17.4655H8.85705C8.3821 17.4655 8 17.0735 8 16.5862V15.4138C8 14.9265 8.3821 14.5345 8.85705 14.5345H19.1202L14.8171 10.3284C14.4671 9.98763 14.46 9.41974 14.8028 9.07167Z" fill="#44A0FF"/>
</svg>
