<svg width="80" height="80" viewBox="0 0 80 80" fill="none" xmlns="http://www.w3.org/2000/svg">
<path fill-rule="evenodd" clip-rule="evenodd" d="M79.8947 37.4737C78.6316 16.6316 61.2632 0 40 0C18.7368 0 1.36842 16.6316 0.105263 37.4737C0.105263 38.3158 0.210526 39.1579 0.315789 40C0.210526 39.1579 0.105263 38.3158 0.105263 37.5789C0.105263 38 0.0789474 38.4211 0.0526316 38.8421C0.0263158 39.2632 0 39.6842 0 40.1053C0 40.8421 0 41.6842 0.105263 42.5263C1.36842 63.3684 18.7368 80 40 80C61.2632 80 78.6316 63.3684 79.8947 42.5263C79.8947 41.6842 79.7895 40.8421 79.6842 40C79.7895 40.8421 79.8947 41.6842 79.8947 42.4211C79.8947 42 79.9211 41.5789 79.9474 41.1579C79.9737 40.7368 80 40.3158 80 39.8947C80 39.1579 80 38.3158 79.8947 37.4737ZM40 4.94737C21.4737 4.94737 6.31579 19.3684 5.05263 37.4737C4.94737 38.3158 4.94737 39.1579 4.94737 40C4.94737 40.8421 4.94737 41.6842 5.05263 42.5263C6.31433 60.6106 21.4386 75.0192 39.9356 75.0526C39.9571 75.0526 39.9785 75.0526 40 75.0526C58.5263 75.0526 73.6842 60.7368 74.9474 42.5263C75.0526 41.6842 75.0526 40.8421 75.0526 40C75.0526 39.1579 75.0526 38.3158 74.9474 37.4737C73.6842 19.3684 58.5263 4.94737 40 4.94737ZM46.1053 15.3684C46.1053 14.4211 45.6842 13.5789 45.0526 12.9474C45.4737 12.4211 45.7895 11.6842 45.8947 10.9474C45.8947 9.15789 44.4211 7.68421 42.6316 7.68421H35.0526V18.7368H42.7368C44.6316 18.7368 46.1053 17.2632 46.1053 15.3684ZM37.5789 11.8947H42.2105C42.7368 11.8947 43.1579 11.4737 43.1579 10.9474C43.1579 10.4211 42.7368 10 42.2105 10H37.5789V11.8947ZM37.5789 16.3158H42.3158C42.9474 16.3158 43.3684 15.8947 43.3684 15.2632C43.3684 14.6316 42.9474 14.2105 42.3158 14.2105H37.5789V16.3158ZM46.8421 31.8947H44L43.1579 30H36.9474L36.1053 31.8947H33.2632L38.7368 20.8421H41.2632L46.8421 31.8947ZM38.1053 27.6842L40 23.6842L41.8947 27.6842H38.1053ZM43.7895 34.3158H46.9474L41.3684 41.4737V45.3684H38.7368V41.4737L33.1579 34.3158H36.3158L40.1053 39.3684L43.7895 34.3158ZM58.4211 36.7368V34.3158H48.4211V45.5789H58.4211V43.1579H51.0526V41.0526H58.2105V38.6316H51.0526V36.7368H58.4211ZM66.5263 41.1579H64.5263V45.3684H61.8947V34.3158H68.6316C70.5263 34.3158 72 35.8947 72 37.7895C72 39.3684 70.9474 40.6316 69.5789 41.0526L72.8421 45.3684H69.6842L66.5263 41.1579ZM64.6316 36.6316H68.4211C68.9474 36.6316 69.4737 37.1579 69.4737 37.6842C69.4737 38.2105 69.0526 38.7368 68.4211 38.7368H64.6316V36.6316ZM34.3158 45.3684H31.4737L30.6316 43.4737H24.4211L23.5789 45.3684H20.7368L26.3158 34.3158H28.8421L34.3158 45.3684ZM25.5789 41.1579L27.4737 37.1579L29.4737 41.1579H25.5789ZM10.7368 38.5263H15.3684C15.8947 38.5263 16.3158 38.1053 16.3158 37.5789C16.3158 37.0526 15.8947 36.6316 15.3684 36.6316H10.7368V38.5263ZM15.4737 42.9474H10.7368V40.8421H15.4737C16.1053 40.8421 16.5263 41.2632 16.5263 41.8947C16.5263 42.5263 16.1053 42.9474 15.4737 42.9474ZM18.2105 39.5789C18.8421 40.2105 19.2632 41.0526 19.2632 42C19.2632 43.8947 17.7895 45.3684 15.8947 45.3684H8.10526V34.3158H15.6842C17.4737 34.3158 18.9474 35.7895 18.9474 37.5789C18.9474 38.3158 18.6316 39.0526 18.2105 39.5789ZM45.0526 50.1053V47.6842H35.0526V58.9474H45.0526V56.5263H37.6842V54.4211H44.8421V52H37.6842V50.1053H45.0526ZM43.1579 64.8421C43.1579 64.2105 42.7368 63.7895 42.1053 63.7895H37.5789V65.8947H42.1053C42.7368 65.8947 43.1579 65.4737 43.1579 64.8421ZM34.9474 61.4737V72.5263H37.5789V68.3158H40.6316L43.7895 72.5263H46.9474L43.5789 68.1053C44.8421 67.5789 45.6842 66.4211 45.6842 64.9474C45.6842 63.0526 44.2105 61.4737 42.3158 61.4737H34.9474Z" fill="black"/>
</svg>
