<svg width="64" height="64" viewBox="0 0 64 64" fill="none" xmlns="http://www.w3.org/2000/svg">
<path fill-rule="evenodd" clip-rule="evenodd" d="M32 64C49.6731 64 64 49.6731 64 32C64 14.3269 49.6731 0 32 0C14.3269 0 0 14.3269 0 32C0 49.6731 14.3269 64 32 64Z" fill="#212C3D"/>
<path fill-rule="evenodd" clip-rule="evenodd" d="M39.5624 37.5592L42.5704 39.3606C42.9814 39.6067 43.122 40.1515 42.8845 40.5775C42.6466 41.0042 42.1206 41.1487 41.7105 40.9031L38.703 39.1019L32.4299 42.8587C32.1667 43.0172 31.834 43.0176 31.5701 42.8587L25.297 39.1019L22.2895 40.9031C21.8791 41.1488 21.3533 41.0041 21.1154 40.5775C20.878 40.1515 21.0186 39.6067 21.4296 39.3606L24.4376 37.5592V30.0446C24.4376 29.7402 24.5904 29.44 24.867 29.2733L31.1406 25.5162V21.913C31.1406 21.4211 31.5254 21.0223 32 21.0223C32.4746 21.0223 32.8594 21.421 32.8594 21.913V25.5162L39.133 29.2733C39.4045 29.4371 39.5624 29.7329 39.5624 30.0445V37.5592ZM26.1563 37.5592L31.1406 40.5442V34.5729L26.1563 31.5879V37.5592ZM32 33.0302L27.0147 30.0445L32 27.0589L36.9853 30.0445L32 33.0302ZM32.8594 40.5442L37.8437 37.5592V31.5879L32.8594 34.5729V40.5442Z" fill="#4737D6"/>
</svg>
