<svg width="64" height="64" viewBox="0 0 64 64" fill="none" xmlns="http://www.w3.org/2000/svg">
<path fill-rule="evenodd" clip-rule="evenodd" d="M32 64C49.6731 64 64 49.6731 64 32C64 14.3269 49.6731 0 32 0C14.3269 0 0 14.3269 0 32C0 49.6731 14.3269 64 32 64Z" fill="#212C3D"/>
<path fill-rule="evenodd" clip-rule="evenodd" d="M42.9182 25.1434L37.8958 20.929L36.4873 22.5994L41.5097 26.8139L42.9182 25.1434ZM27.5017 22.5994L26.1042 20.929L21.0818 25.1325L22.4902 26.8029L27.5017 22.5994ZM32.5459 27.6327H30.9082V34.1836L36.0943 37.2953L36.9132 35.9524L32.5459 33.3648V27.6327ZM32 23.2654C26.5736 23.2654 22.1736 27.6655 22.1736 33.0918C22.1736 38.5181 26.5627 42.9182 32 42.9182C37.4263 42.9182 41.8263 38.5181 41.8263 33.0918C41.8263 27.6655 37.4263 23.2654 32 23.2654ZM32 40.7345C27.7746 40.7345 24.3572 37.3172 24.3572 33.0918C24.3572 28.8665 27.7746 25.4491 32 25.4491C36.2253 25.4491 39.6427 28.8665 39.6427 33.0918C39.6427 37.3172 36.2253 40.7345 32 40.7345Z" fill="#4737D6"/>
</svg>
