<svg width="64" height="64" viewBox="0 0 64 64" fill="none" xmlns="http://www.w3.org/2000/svg">
<path fill-rule="evenodd" clip-rule="evenodd" d="M32 64C49.6731 64 64 49.6731 64 32C64 14.3269 49.6731 0 32 0C14.3269 0 0 14.3269 0 32C0 49.6731 14.3269 64 32 64Z" fill="#212C3D"/>
<path fill-rule="evenodd" clip-rule="evenodd" d="M38.8629 37.2384C37.9936 37.2384 37.2158 37.5815 36.621 38.1191L28.4656 33.3723C28.5228 33.1092 28.5686 32.8462 28.5686 32.5716C28.5686 32.2971 28.5228 32.0341 28.4656 31.771L36.5295 27.0699C37.1472 27.6418 37.9593 27.9964 38.8629 27.9964C40.7616 27.9964 42.2943 26.4637 42.2943 24.565C42.2943 22.6662 40.7616 21.1335 38.8629 21.1335C36.9641 21.1335 35.4314 22.6662 35.4314 24.565C35.4314 24.8395 35.4772 25.1026 35.5344 25.3656L27.4705 30.0667C26.8529 29.4948 26.0408 29.1402 25.1371 29.1402C23.2384 29.1402 21.7057 30.6729 21.7057 32.5716C21.7057 34.4704 23.2384 36.0031 25.1371 36.0031C26.0408 36.0031 26.8529 35.6485 27.4705 35.0766L35.6144 39.8348C35.5573 40.075 35.5229 40.3267 35.5229 40.5783C35.5229 42.4198 37.0213 43.9182 38.8629 43.9182C40.7044 43.9182 42.2028 42.4198 42.2028 40.5783C42.2028 38.7368 40.7044 37.2384 38.8629 37.2384Z" fill="#4737D6"/>
</svg>
