<svg width="23" height="24" viewBox="0 0 23 24" fill="none" xmlns="http://www.w3.org/2000/svg">
<path fill-rule="evenodd" clip-rule="evenodd" d="M11.2821 2C6.09231 2 1.88034 6.48 1.88034 12C1.88034 17.52 6.09231 22 11.2821 22C16.4718 22 20.6838 17.52 20.6838 12C20.6838 6.48 16.4718 2 11.2821 2ZM10.3419 19.93C6.6282 19.44 3.76068 16.08 3.76068 12C3.76068 11.38 3.8359 10.79 3.95812 10.21L8.46154 15V16C8.46154 17.1 9.30769 18 10.3419 18V19.93ZM16.8291 17.39C16.5846 16.58 15.8889 16 15.0427 16H14.1026V13C14.1026 12.45 13.6795 12 13.1624 12H7.52137V10H9.40171C9.9188 10 10.3419 9.55 10.3419 9V7H12.2222C13.2564 7 14.1026 6.1 14.1026 5V4.59C16.8573 5.78 18.8034 8.65 18.8034 12C18.8034 14.08 18.0513 15.97 16.8291 17.39Z" fill="white"/>
</svg>
