<svg width="136" height="40" viewBox="0 0 136 40" fill="none" xmlns="http://www.w3.org/2000/svg">
<rect x="0.167725" width="134.917" height="40" rx="6" fill="black"/>
<path fill-rule="evenodd" clip-rule="evenodd" d="M5.16465 0H130.088C132.847 0 135.085 2.23858 135.085 5V35C135.085 37.7614 132.847 40 130.088 40H5.16465C2.40492 40 0.167725 37.7614 0.167725 35V5C0.167725 2.23858 2.40492 0 5.16465 0ZM134.285 5C134.285 2.6804 132.406 0.8 130.088 0.8H5.16464C2.84647 0.8 0.967222 2.6804 0.967222 5V35C0.967222 37.3196 2.84647 39.2 5.16464 39.2H130.088C132.406 39.2 134.285 37.3196 134.285 35V5Z" fill="#A6A6A6"/>
<path fill-rule="evenodd" clip-rule="evenodd" d="M47.8783 23.0599V24.8599H52.1957C52.128 25.7077 51.7758 26.5077 51.1963 27.1299C50.3229 28.0201 49.1141 28.4995 47.8683 28.4499C45.219 28.4499 43.0713 26.3009 43.0713 23.6499C43.0713 20.9989 45.219 18.8499 47.8683 18.8499C49.0854 18.83 50.2606 19.2939 51.1363 20.1399L52.4055 18.8699C51.2112 17.6598 49.578 16.9851 47.8783 16.9999C45.4588 16.9057 43.1816 18.1436 41.9438 20.2259C40.7061 22.3083 40.7061 24.9014 41.9438 26.9838C43.1816 29.0662 45.4588 30.3041 47.8783 30.2099C49.609 30.2881 51.289 29.6136 52.4855 28.3599C53.5325 27.2088 54.0916 25.6957 54.0445 24.1399C54.0478 23.7609 54.0143 23.3824 53.9446 23.0099L47.8783 23.0599ZM58.9615 21.7499C56.6171 21.7554 54.7205 23.6606 54.7241 26.0065C54.7278 28.3524 56.6304 30.2517 58.9748 30.2499C61.3193 30.248 63.2189 28.3458 63.2189 25.9999C63.2354 24.8643 62.7904 23.7706 61.9859 22.9694C61.1814 22.1682 60.0864 21.7281 58.9515 21.7499H58.9615ZM64.0384 26.0132C64.0311 23.6686 65.9227 21.7609 68.2658 21.7499C69.4006 21.7281 70.4957 22.1682 71.3002 22.9694C72.1047 23.7706 72.5496 24.8643 72.5332 25.9999C72.5331 28.3445 70.6356 30.2462 68.2924 30.2498C65.9493 30.2535 64.0458 28.3578 64.0384 26.0132ZM65.7594 27.1183C66.2157 28.0742 67.2097 28.6538 68.2658 28.5799C68.9287 28.5645 69.5573 28.2819 70.0089 27.7961C70.4605 27.3103 70.6969 26.6626 70.6643 25.9999C70.6618 24.9405 70.0123 23.9904 69.0265 23.604C68.0408 23.2175 66.9191 23.4733 66.198 24.2489C65.477 25.0246 65.303 26.1625 65.7594 27.1183ZM56.4484 27.126C56.908 28.0813 57.9048 28.658 58.9615 28.5799H58.9515C59.6144 28.5645 60.2429 28.2819 60.6946 27.7961C61.1462 27.3103 61.3825 26.6626 61.35 25.9999C61.3471 24.9397 60.6964 23.9892 59.7094 23.6036C58.7224 23.218 57.6001 23.4758 56.8801 24.2536C56.16 25.0314 55.9888 26.1707 56.4484 27.126ZM89.5227 21.7499C91.1796 21.8109 92.6269 22.8891 93.1604 24.4599L93.3703 24.9099L87.6838 27.2599C88.0402 28.0721 88.8567 28.5837 89.7425 28.5499C90.5979 28.5521 91.3913 28.1038 91.8313 27.3699L93.2804 28.3699C92.4915 29.5513 91.1625 30.2576 89.7425 30.2499C88.6138 30.2665 87.5269 29.823 86.7315 29.0215C85.9361 28.2199 85.5006 27.1292 85.5251 25.9999C85.4561 24.8964 85.8466 23.8136 86.6039 23.0084C87.3612 22.2033 88.4177 21.7477 89.5227 21.7499ZM87.364 25.8799C87.3231 25.2551 87.5352 24.64 87.9526 24.1735C88.37 23.7069 88.9575 23.4281 89.5827 23.3999C90.2416 23.3564 90.8629 23.7106 91.1617 24.2999L87.364 25.8799ZM84.6157 29.9999H82.7469V17.4999H84.6157V29.9999ZM79.6887 22.6999H79.6188C79.0491 22.0626 78.2347 21.6988 77.3801 21.6999C75.1117 21.81 73.329 23.6824 73.329 25.9549C73.329 28.2274 75.1117 30.0998 77.3801 30.2099C78.2374 30.2243 79.0571 29.8582 79.6188 29.2099H79.6787V29.8199C79.6787 31.4499 78.8093 32.3199 77.4101 32.3199C76.457 32.2976 75.612 31.7009 75.2714 30.8099L73.6424 31.4899C74.2697 33.0167 75.7604 34.0098 77.4101 33.9999C79.5988 33.9999 81.4077 32.7099 81.4077 29.5699V21.9999H79.6887V22.6999ZM77.5469 28.5796L77.55 28.5799H77.54L77.5469 28.5796ZM79.231 27.7777C78.8021 28.2633 78.1939 28.5529 77.5469 28.5796C76.2122 28.4603 75.1889 27.3411 75.1889 25.9999C75.1889 24.6576 76.2137 23.5377 77.55 23.4199C78.1958 23.4531 78.8008 23.7457 79.2279 24.2314C79.655 24.7171 79.868 25.3548 79.8186 25.9999C79.8737 26.6479 79.6614 27.2903 79.231 27.7777ZM101.915 17.4999H97.4478V29.9999H99.3167V25.2599H101.925C103.377 25.3643 104.765 24.6484 105.523 23.4049C106.281 22.1613 106.281 20.5985 105.523 19.3549C104.765 18.1114 103.377 17.3955 101.925 17.4999H101.915ZM99.3067 23.4999H101.915L101.955 23.5299C103.139 23.5299 104.099 22.5695 104.099 21.3849C104.099 20.2002 103.139 19.2399 101.955 19.2399H99.3067V23.4999ZM113.438 21.6999C112.048 21.6167 110.74 22.367 110.11 23.6099L111.769 24.2999C112.103 23.6836 112.77 23.3228 113.468 23.3799C113.947 23.3239 114.429 23.4629 114.805 23.7656C115.181 24.0683 115.419 24.5095 115.467 24.9899V25.1199C114.867 24.8019 114.197 24.637 113.518 24.6399C111.729 24.6399 109.92 25.6399 109.92 27.4499C109.956 28.2296 110.305 28.9617 110.889 29.4797C111.472 29.9977 112.24 30.2574 113.018 30.1999C113.977 30.2688 114.897 29.8086 115.417 28.9999H115.477V29.9999H117.276V25.1899C117.276 22.9999 115.617 21.7299 113.488 21.7299L113.438 21.6999ZM111.749 27.4899C111.749 28.2399 112.598 28.5499 113.208 28.5499L113.258 28.5799C114.384 28.5524 115.317 27.6993 115.447 26.5799C114.928 26.2903 114.341 26.1452 113.748 26.1599C112.808 26.1599 111.749 26.4899 111.749 27.4899ZM123.832 21.9999L121.693 27.4199H121.633L119.414 21.9999H117.416L120.743 29.5799L118.845 33.7899H120.793L125.91 21.9999H123.832ZM108.901 29.9999H107.032V17.4999H108.901V29.9999Z" fill="white"/>
<path fill-rule="evenodd" clip-rule="evenodd" d="M69.3351 7.76997C68.1561 9.01874 68.1561 10.9712 69.3351 12.22C70.5514 13.4302 72.5162 13.4302 73.7324 12.22C74.9165 10.9732 74.9165 9.01673 73.7324 7.76997C73.1508 7.18372 72.3594 6.854 71.5338 6.854C70.7082 6.854 69.9168 7.18372 69.3351 7.76997ZM46.809 12.24C47.322 11.7041 47.5929 10.9812 47.5586 10.24C47.5586 10.0891 47.5452 9.93849 47.5186 9.78997H44.6104V10.51H46.779C46.7642 10.9635 46.5869 11.3965 46.2793 11.73C45.5944 12.3925 44.5783 12.5776 43.7039 12.1992C42.8294 11.8208 42.2684 10.9532 42.2818 9.99997C42.26 9.36919 42.4961 8.75676 42.9354 8.30391C43.3748 7.85106 43.9796 7.59688 44.6104 7.59997C45.2379 7.56566 45.845 7.82865 46.2494 8.30997L46.779 7.77997C46.5232 7.48553 46.2012 7.25592 45.8396 7.10997C45.4512 6.94364 45.0329 6.85856 44.6104 6.85997C43.7815 6.84149 42.9819 7.1673 42.4017 7.75997C41.5088 8.65929 41.2417 10.0066 41.7238 11.1789C42.206 12.3512 43.3435 13.1201 44.6104 13.13C45.4363 13.1594 46.2358 12.8358 46.809 12.24ZM49.4374 7.73997H52.1358V6.99997H48.6379V13H52.1358V12.26H49.4374V10.36H51.8959V9.63997H49.4374V7.73997ZM55.4137 13H54.6442V7.73997H52.9652V6.99997H57.1327V7.73997H55.4137V13ZM60.0709 6.99997V13H60.8404V6.99997H60.0709ZM64.2582 13H63.4887V7.73997H61.8097V6.99997H65.9272V7.73997H64.2582V13ZM69.9048 11.72C70.8056 12.6175 72.2621 12.6175 73.1628 11.72C74.0475 10.7441 74.0475 9.2558 73.1628 8.27997C72.2621 7.38241 70.8056 7.38241 69.9048 8.27997C69.0202 9.2558 69.0202 10.7441 69.9048 11.72ZM75.7013 6.99997V13H76.4808V8.10997L79.5289 13H80.3284V6.99997H79.5589V11.67L76.6407 6.99997H75.7013Z" fill="white"/>
<path d="M69.3351 12.22L69.1533 12.3917L69.1588 12.3972L69.3351 12.22ZM69.3351 7.76997L69.1576 7.59384L69.1534 7.59834L69.3351 7.76997ZM73.7324 12.22L73.9088 12.3973L73.9137 12.3921L73.7324 12.22ZM73.7324 7.76997L73.9138 7.59777L73.9099 7.59389L73.7324 7.76997ZM47.5586 10.24L47.3083 10.2399L47.3088 10.2515L47.5586 10.24ZM46.809 12.24L46.9892 12.4133L46.9896 12.4128L46.809 12.24ZM47.5186 9.78997L47.7646 9.7458L47.7277 9.53997H47.5186V9.78997ZM44.6104 9.78997V9.53997H44.3604V9.78997H44.6104ZM44.6104 10.51H44.3604V10.76H44.6104V10.51ZM46.779 10.51L47.0289 10.5181L47.0373 10.26H46.779V10.51ZM46.2793 11.73L46.4531 11.9097L46.4583 11.9047L46.4631 11.8995L46.2793 11.73ZM43.7039 12.1992L43.6046 12.4287L43.6046 12.4287L43.7039 12.1992ZM42.2818 9.99997L42.5321 10.0035L42.5316 9.99135L42.2818 9.99997ZM42.9354 8.30391L42.756 8.12982L42.756 8.12982L42.9354 8.30391ZM44.6104 7.59997L44.6091 7.84997L44.6166 7.85L44.624 7.8496L44.6104 7.59997ZM46.2494 8.30997L46.0579 8.47079L46.2334 8.67961L46.4262 8.48669L46.2494 8.30997ZM46.779 7.77997L46.9559 7.95669L47.1206 7.79188L46.9677 7.61599L46.779 7.77997ZM45.8396 7.10997L45.7412 7.33984L45.746 7.3418L45.8396 7.10997ZM44.6104 6.85997L44.6048 7.10999L44.6112 7.10997L44.6104 6.85997ZM42.4017 7.75997L42.5791 7.93612L42.5804 7.93485L42.4017 7.75997ZM41.7238 11.1789L41.955 11.0838L41.955 11.0838L41.7238 11.1789ZM44.6104 13.13L44.6193 12.88L44.6123 12.88L44.6104 13.13ZM52.1358 7.73997V7.98997H52.3858V7.73997H52.1358ZM49.4374 7.73997V7.48997H49.1874V7.73997H49.4374ZM52.1358 6.99997H52.3858V6.74997H52.1358V6.99997ZM48.6379 6.99997V6.74997H48.3879V6.99997H48.6379ZM48.6379 13H48.3879V13.25H48.6379V13ZM52.1358 13V13.25H52.3858V13H52.1358ZM52.1358 12.26H52.3858V12.01H52.1358V12.26ZM49.4374 12.26H49.1874V12.51H49.4374V12.26ZM49.4374 10.36V10.11H49.1874V10.36H49.4374ZM51.8959 10.36V10.61H52.1459V10.36H51.8959ZM51.8959 9.63997H52.1459V9.38997H51.8959V9.63997ZM49.4374 9.63997H49.1874V9.88997H49.4374V9.63997ZM54.6442 13H54.3942V13.25H54.6442V13ZM55.4137 13V13.25H55.6637V13H55.4137ZM54.6442 7.73997H54.8942V7.48997H54.6442V7.73997ZM52.9652 7.73997H52.7152V7.98997H52.9652V7.73997ZM52.9652 6.99997V6.74997H52.7152V6.99997H52.9652ZM57.1327 6.99997H57.3827V6.74997H57.1327V6.99997ZM57.1327 7.73997V7.98997H57.3827V7.73997H57.1327ZM55.4137 7.73997V7.48997H55.1637V7.73997H55.4137ZM60.0709 13H59.8209V13.25H60.0709V13ZM60.0709 6.99997V6.74997H59.8209V6.99997H60.0709ZM60.8404 13V13.25H61.0904V13H60.8404ZM60.8404 6.99997H61.0904V6.74997H60.8404V6.99997ZM63.4887 13H63.2387V13.25H63.4887V13ZM64.2582 13V13.25H64.5082V13H64.2582ZM63.4887 7.73997H63.7387V7.48997H63.4887V7.73997ZM61.8097 7.73997H61.5597V7.98997H61.8097V7.73997ZM61.8097 6.99997V6.74997H61.5597V6.99997H61.8097ZM65.9272 6.99997H66.1772V6.74997H65.9272V6.99997ZM65.9272 7.73997V7.98997H66.1772V7.73997H65.9272ZM64.2582 7.73997V7.48997H64.0082V7.73997H64.2582ZM73.1628 11.72L73.3395 11.8973L73.348 11.8879L73.1628 11.72ZM69.9048 11.72L69.7194 11.8881L69.7284 11.8971L69.9048 11.72ZM73.1628 8.27997L73.3483 8.11184L73.3393 8.10288L73.1628 8.27997ZM69.9048 8.27997L69.7281 8.10265L69.7196 8.11206L69.9048 8.27997ZM75.7013 13H75.4513V13.25H75.7013V13ZM75.7013 6.99997V6.74997H75.4513V6.99997H75.7013ZM76.4808 13V13.25H76.7308V13H76.4808ZM76.4808 8.10997L76.6929 7.97772L76.2308 7.2363V8.10997H76.4808ZM79.5289 13L79.3167 13.1322L79.3901 13.25H79.5289V13ZM80.3284 13V13.25H80.5784V13H80.3284ZM80.3284 6.99997H80.5784V6.74997H80.3284V6.99997ZM79.5589 6.99997V6.74997H79.3089V6.99997H79.5589ZM79.5589 11.67L79.3469 11.8025L79.8089 12.5418V11.67H79.5589ZM76.6407 6.99997L76.8527 6.86749L76.7793 6.74997H76.6407V6.99997ZM69.5169 12.0483C68.4289 10.8959 68.4289 9.09402 69.5169 7.9416L69.1534 7.59834C67.8834 8.94345 67.8834 11.0465 69.1534 12.3916L69.5169 12.0483ZM73.5561 12.0428C72.4374 13.1559 70.6302 13.1559 69.5115 12.0428L69.1588 12.3972C70.4726 13.7045 72.595 13.7045 73.9088 12.3972L73.5561 12.0428ZM73.5512 7.94213C74.6436 9.0924 74.6436 10.8975 73.5512 12.0478L73.9137 12.3921C75.1894 11.0489 75.1894 8.94106 73.9137 7.59781L73.5512 7.94213ZM71.5338 7.104C72.2927 7.104 73.0202 7.40709 73.555 7.94605L73.9099 7.59389C73.2813 6.96035 72.426 6.604 71.5338 6.604V7.104ZM69.5126 7.94605C70.0473 7.40709 70.7749 7.104 71.5338 7.104V6.604C70.6415 6.604 69.7862 6.96035 69.1577 7.59389L69.5126 7.94605ZM47.3088 10.2515C47.34 10.9244 47.094 11.5807 46.6284 12.0671L46.9896 12.4128C47.5499 11.8275 47.8458 11.038 47.8083 10.2284L47.3088 10.2515ZM47.2725 9.83414C47.2965 9.96804 47.3086 10.1038 47.3086 10.2399L47.8086 10.2401C47.8086 10.0743 47.7939 9.90893 47.7646 9.7458L47.2725 9.83414ZM44.6104 10.04H47.5186V9.53997H44.6104V10.04ZM44.8604 10.51V9.78997H44.3604V10.51H44.8604ZM46.779 10.26H44.6104V10.76H46.779V10.26ZM46.4631 11.8995C46.8113 11.5219 47.0121 11.0316 47.0289 10.5181L46.5292 10.5018C46.5163 10.8954 46.3624 11.2711 46.0956 11.5605L46.4631 11.8995ZM43.6046 12.4287C44.5717 12.8472 45.6956 12.6424 46.4531 11.9097L46.1055 11.5503C45.4931 12.1426 44.5848 12.3081 43.8031 11.9698L43.6046 12.4287ZM42.0318 9.99646C42.017 11.0505 42.6374 12.0101 43.6046 12.4287L43.8031 11.9698C43.0214 11.6315 42.5198 10.8558 42.5318 10.0035L42.0318 9.99646ZM42.756 8.12982C42.2693 8.63148 42.0078 9.30989 42.0319 10.0086L42.5316 9.99135C42.5122 9.42849 42.7228 8.88204 43.1149 8.478L42.756 8.12982ZM44.6116 7.34997C43.9128 7.34654 43.2427 7.62816 42.756 8.12982L43.1149 8.478C43.5069 8.07396 44.0464 7.84721 44.6091 7.84997L44.6116 7.34997ZM46.4408 8.14915C45.9858 7.60765 45.3028 7.31174 44.5967 7.35034L44.624 7.8496C45.173 7.81958 45.7041 8.04965 46.0579 8.47079L46.4408 8.14915ZM46.6022 7.60325L46.0725 8.13325L46.4262 8.48669L46.9559 7.95669L46.6022 7.60325ZM45.746 7.3418C46.071 7.47297 46.3604 7.67931 46.5903 7.94395L46.9677 7.61599C46.686 7.29174 46.3314 7.03888 45.9332 6.87814L45.746 7.3418ZM44.6112 7.10997C44.9996 7.10867 45.3841 7.18688 45.7412 7.33979L45.938 6.88016C45.5182 6.7004 45.0661 6.60845 44.6095 6.60997L44.6112 7.10997ZM42.5804 7.93485C43.1122 7.39159 43.845 7.09297 44.6048 7.10991L44.6159 6.61003C43.7179 6.59001 42.8516 6.94301 42.2231 7.58509L42.5804 7.93485ZM41.955 11.0838C41.5111 10.0045 41.7571 8.76405 42.5791 7.93611L42.2243 7.58383C41.2605 8.55453 40.9722 10.0087 41.4926 11.274L41.955 11.0838ZM44.6123 12.88C43.4461 12.8708 42.3989 12.1631 41.955 11.0838L41.4926 11.274C42.013 12.5393 43.2408 13.3693 44.6084 13.38L44.6123 12.88ZM46.6289 12.0666C46.1049 12.6112 45.3742 12.907 44.6193 12.8801L44.6015 13.3798C45.4985 13.4118 46.3667 13.0603 46.9892 12.4133L46.6289 12.0666ZM52.1358 7.48997H49.4374V7.98997H52.1358V7.48997ZM51.8858 6.99997V7.73997H52.3858V6.99997H51.8858ZM48.6379 7.24997H52.1358V6.74997H48.6379V7.24997ZM48.8879 13V6.99997H48.3879V13H48.8879ZM52.1358 12.75H48.6379V13.25H52.1358V12.75ZM51.8858 12.26V13H52.3858V12.26H51.8858ZM49.4374 12.51H52.1358V12.01H49.4374V12.51ZM49.1874 10.36V12.26H49.6874V10.36H49.1874ZM51.8959 10.11H49.4374V10.61H51.8959V10.11ZM51.6459 9.63997V10.36H52.1459V9.63997H51.6459ZM49.4374 9.88997H51.8959V9.38997H49.4374V9.88997ZM49.1874 7.73997V9.63997H49.6874V7.73997H49.1874ZM54.6442 13.25H55.4137V12.75H54.6442V13.25ZM54.3942 7.73997V13H54.8942V7.73997H54.3942ZM52.9652 7.98997H54.6442V7.48997H52.9652V7.98997ZM52.7152 6.99997V7.73997H53.2152V6.99997H52.7152ZM57.1327 6.74997H52.9652V7.24997H57.1327V6.74997ZM57.3827 7.73997V6.99997H56.8827V7.73997H57.3827ZM55.4137 7.98997H57.1327V7.48997H55.4137V7.98997ZM55.6637 13V7.73997H55.1637V13H55.6637ZM60.3209 13V6.99997H59.8209V13H60.3209ZM60.8404 12.75H60.0709V13.25H60.8404V12.75ZM60.5904 6.99997V13H61.0904V6.99997H60.5904ZM60.0709 7.24997H60.8404V6.74997H60.0709V7.24997ZM63.4887 13.25H64.2582V12.75H63.4887V13.25ZM63.2387 7.73997V13H63.7387V7.73997H63.2387ZM61.8097 7.98997H63.4887V7.48997H61.8097V7.98997ZM61.5597 6.99997V7.73997H62.0597V6.99997H61.5597ZM65.9272 6.74997H61.8097V7.24997H65.9272V6.74997ZM66.1772 7.73997V6.99997H65.6772V7.73997H66.1772ZM64.2582 7.98997H65.9272V7.48997H64.2582V7.98997ZM64.5082 13V7.73997H64.0082V13H64.5082ZM72.9864 11.5429C72.1831 12.3432 70.8845 12.3432 70.0813 11.5429L69.7284 11.8971C70.7267 12.8918 72.341 12.8918 73.3393 11.8971L72.9864 11.5429ZM72.9776 8.44788C73.7759 9.32843 73.7759 10.6715 72.9776 11.5521L73.348 11.8879C74.3191 10.8168 74.3191 9.18317 73.348 8.11206L72.9776 8.44788ZM70.0813 8.45706C70.8845 7.65671 72.1831 7.65671 72.9864 8.45706L73.3393 8.10288C72.341 7.1081 70.7267 7.1081 69.7284 8.10288L70.0813 8.45706ZM70.09 11.5521C69.2918 10.6715 69.2918 9.32843 70.09 8.44788L69.7196 8.11206C68.7486 9.18317 68.7486 10.8168 69.7196 11.8879L70.09 11.5521ZM75.9513 13V6.99997H75.4513V13H75.9513ZM76.4808 12.75H75.7013V13.25H76.4808V12.75ZM76.2308 8.10997V13H76.7308V8.10997H76.2308ZM79.7411 12.8677L76.6929 7.97772L76.2686 8.24222L79.3167 13.1322L79.7411 12.8677ZM80.3284 12.75H79.5289V13.25H80.3284V12.75ZM80.0784 6.99997V13H80.5784V6.99997H80.0784ZM79.5589 7.24997H80.3284V6.74997H79.5589V7.24997ZM79.8089 11.67V6.99997H79.3089V11.67H79.8089ZM76.4287 7.13245L79.3469 11.8025L79.7709 11.5375L76.8527 6.86749L76.4287 7.13245ZM75.7013 7.24997H76.6407V6.74997H75.7013V7.24997Z" fill="white"/>
<path d="M10.6013 7.53997C10.2756 7.93108 10.1112 8.43177 10.1416 8.93997V31.06C10.1112 31.5682 10.2756 32.0689 10.6013 32.46L10.6713 32.53L23.0537 20.15V19.86L10.6713 7.46997L10.6013 7.53997Z" fill="url(#paint0_linear)"/>
<path d="M27.1511 24.28L23.0536 20.15V19.86L27.1511 15.72L27.241 15.77L32.148 18.56C33.5472 19.35 33.5472 20.65 32.148 21.45L27.261 24.23L27.1511 24.28Z" fill="url(#paint1_linear)"/>
<path d="M27.271 24.22L23.0536 20L10.6013 32.46C11.1896 32.9775 12.0628 33.0027 12.68 32.52L27.281 24.22" fill="url(#paint2_linear)"/>
<path d="M27.2711 15.7801L12.6701 7.48005C12.0529 6.99733 11.1797 7.02253 10.5913 7.54005L23.0537 20.0001L27.2711 15.7801Z" fill="url(#paint3_linear)"/>
<path opacity="0.2" d="M27.1511 24.1301L12.67 32.3801C12.0774 32.8235 11.2638 32.8235 10.6712 32.3801L10.6013 32.4501L10.6712 32.5201C11.2627 32.9668 12.0785 32.9668 12.67 32.5201L27.271 24.2201L27.1511 24.1301Z" fill="black"/>
<path opacity="0.12" fill-rule="evenodd" clip-rule="evenodd" d="M27.1512 24.13L32.1481 21.3C32.6645 21.045 33.0336 20.5648 33.1475 20C33.096 20.6244 32.7148 21.1736 32.1481 21.44L27.2411 24.22L27.1512 24.13ZM10.1394 31.1147C10.1559 31.5546 10.3173 31.979 10.6013 32.32L10.6713 32.4L10.6013 32.47C10.2851 32.0904 10.121 31.6075 10.1394 31.1147ZM10.1394 31.1147C10.14 31.0998 10.1407 31.0849 10.1416 31.07V30.92C10.1377 30.9851 10.137 31.05 10.1394 31.1147Z" fill="black"/>
<path opacity="0.25" d="M12.6701 7.61994L32.1481 18.6999C32.6645 18.955 33.0336 19.4351 33.1475 19.9999C33.096 19.3755 32.7148 18.8263 32.1481 18.5599L12.6701 7.47994C11.2709 6.68994 10.1316 7.34994 10.1316 8.94994V9.09994C10.1616 7.48994 11.2809 6.82994 12.6701 7.61994V7.61994Z" fill="white"/>
<defs>
<linearGradient id="paint0_linear" x1="17.6302" y1="-7.559" x2="-2.1986" y2="-2.28872" gradientUnits="userSpaceOnUse">
<stop stop-color="#00A0FF"/>
<stop offset="0.01" stop-color="#00A1FF"/>
<stop offset="0.26" stop-color="#00BEFF"/>
<stop offset="0.51" stop-color="#00D2FF"/>
<stop offset="0.76" stop-color="#00DFFF"/>
<stop offset="1" stop-color="#00E3FF"/>
</linearGradient>
<linearGradient id="paint1_linear" x1="33.9769" y1="9.79966" x2="9.80178" y2="9.79966" gradientUnits="userSpaceOnUse">
<stop stop-color="#FFE000"/>
<stop offset="0.41" stop-color="#FFBD00"/>
<stop offset="0.78" stop-color="#FFA500"/>
<stop offset="1" stop-color="#FF9C00"/>
</linearGradient>
<linearGradient id="paint2_linear" x1="10.2354" y1="13.5275" x2="-5.70572" y2="40.3255" gradientUnits="userSpaceOnUse">
<stop stop-color="#FF3A44"/>
<stop offset="1" stop-color="#C31162"/>
</linearGradient>
<linearGradient id="paint3_linear" x1="0.877337" y1="4.09606" x2="7.99272" y2="16.0627" gradientUnits="userSpaceOnUse">
<stop stop-color="#32A071"/>
<stop offset="0.07" stop-color="#2DA771"/>
<stop offset="0.48" stop-color="#15CF74"/>
<stop offset="0.8" stop-color="#06E775"/>
<stop offset="1" stop-color="#00F076"/>
</linearGradient>
</defs>
</svg>
