<svg width="307" height="40" viewBox="0 0 307 40" fill="none" xmlns="http://www.w3.org/2000/svg">
<path fill-rule="evenodd" clip-rule="evenodd" d="M71.1126 39.235L74.2805 30.3825H73.7343C72.7876 32.7505 71.6042 34.5355 70.184 35.7377C68.7639 36.9399 66.7066 37.541 64.012 37.541H56.2013V21.2022H65.4867C66.215 21.2386 66.8249 21.5118 67.3165 22.0219C67.8081 22.5319 68.0538 23.1512 68.0538 23.8798V24.6995H68.6001V16.0656H68.0538V16.8306C68.0538 17.5956 67.799 18.2332 67.2892 18.7432C66.7794 19.2532 66.1604 19.5264 65.4321 19.5628H56.2013V2.6776H67.3438C68.1813 2.71403 68.9005 3.04189 69.5013 3.6612C70.1021 4.28051 70.4025 5.02732 70.4025 5.90164V6.88525H70.9487V0C70.4025 0.218579 69.4649 0.437158 68.1358 0.655738C66.8067 0.874317 65.5777 0.983607 64.4489 0.983607H48.4452L48.4999 1.53005H49.1553C50.0656 1.53005 50.8485 1.8306 51.504 2.43169C52.1594 3.03279 52.5417 3.77049 52.651 4.64481V35.2459C52.6146 36.1931 52.2595 37.0036 51.5859 37.6776C50.9122 38.3516 50.102 38.6885 49.1553 38.6885H48.4452V39.235H71.1126ZM37.1417 40L37.0324 39.0164C36.7775 37.122 36.6501 35.1184 36.6501 33.0055V4.80874C36.6865 3.898 37.0324 3.12386 37.6879 2.48634C38.3433 1.84882 39.1262 1.53005 40.0365 1.53005H41.0197V0.983607H29.768V1.53005H30.8057C31.7161 1.53005 32.499 1.84882 33.1544 2.48634C33.8098 3.12386 34.1558 3.91621 34.1922 4.86339V31.9672L4.42423 0.163934H3.87803L3.98727 1.03825C4.24216 2.78689 4.36961 4.77231 4.36961 6.99454V35.3552C4.36961 36.3024 4.04189 37.0947 3.38645 37.7322C2.73101 38.3698 1.94812 38.6885 1.03778 38.6885H0V39.235H11.2517V38.6885H10.214C9.63135 38.6885 9.08514 38.5428 8.57536 38.2514C7.48295 37.6321 6.91855 36.6849 6.88213 35.4098V8.19672L36.6501 40H37.1417ZM111.256 36.0656C108.561 38.6885 104.974 40 100.495 40C96.0165 40 92.3843 38.6976 89.5987 36.0929C86.813 33.4882 85.4202 30.0546 85.4202 25.7923V4.26229C85.4202 3.1694 84.9469 2.36794 84.0001 1.85792C83.5632 1.63934 83.0716 1.53005 82.5254 1.53005H81.6515V0.983607H92.7393V1.53005H91.8654C91.0643 1.53005 90.3907 1.77596 89.8445 2.26776C89.2983 2.75956 89.007 3.38798 88.9705 4.15301V25.0273C88.9705 28.9982 90.0356 32.204 92.1658 34.6448C94.296 37.0856 97.1454 38.306 100.714 38.306C104.282 38.306 107.177 37.1494 109.398 34.8361C111.62 32.5228 112.73 29.49 112.73 25.7377V4.15301C112.694 3.38798 112.403 2.75956 111.856 2.26776C111.31 1.77596 110.637 1.53005 109.835 1.53005H108.962V0.983607H119.066V1.53005H118.192C117.428 1.53005 116.763 1.77596 116.199 2.26776C115.634 2.75956 115.334 3.36976 115.297 4.09836V25.7377C115.297 30 113.95 33.4426 111.256 36.0656ZM138.563 39.235L138.508 38.6885H137.853C136.87 38.6885 136.041 38.3515 135.368 37.6776C134.694 37.0036 134.357 36.1931 134.357 35.2459V2.6776H137.853C139.164 2.6776 140.256 2.69581 141.13 2.73224C143.169 2.84153 144.789 3.64299 145.991 5.13661C147.193 6.63024 147.83 8.59745 147.903 11.0383V12.2678C147.903 12.9053 147.794 13.5883 147.575 14.3169C146.41 17.9964 143.57 19.8907 139.054 20C138.363 20.0364 137.78 20.0546 137.307 20.0546C136.833 20.0546 136.451 20.0364 136.16 20V20.5464C137.325 20.5464 138.49 21.1658 139.655 22.4044C140.056 22.8415 140.438 23.2878 140.802 23.7432C141.166 24.1985 142.459 26.0291 144.68 29.235C146.901 32.4408 148.258 34.326 148.749 34.8907C149.241 35.4554 149.824 36.0383 150.497 36.6393C151.171 37.2404 152.181 37.8233 153.529 38.388C154.876 38.9526 156.333 39.235 157.898 39.235H160.902V38.6885C159.701 38.6885 158.572 38.4335 157.516 37.9235C157.043 37.7049 156.569 37.4135 156.096 37.0492C155.622 36.6849 155.186 36.3115 154.785 35.929C154.384 35.5464 153.711 34.8361 152.764 33.7978C151.817 32.7596 149.778 30 146.647 25.5191C146.064 24.7177 145.399 23.9435 144.653 23.1967C143.906 22.4499 143.26 21.949 142.714 21.694C145.299 21.694 147.493 20.6284 149.296 18.4973C151.098 16.3661 151.999 13.8342 151.999 10.9016C151.999 7.96903 151.053 5.58288 149.159 3.74317C147.266 1.90346 144.662 0.983607 141.348 0.983607H126.601V1.53005H127.311C128.258 1.53005 129.068 1.86703 129.742 2.54098C130.415 3.21494 130.77 4.0255 130.807 4.97268V35.3005C130.77 36.2477 130.415 37.0492 129.742 37.7049C129.068 38.3607 128.258 38.6885 127.311 38.6885H126.601V39.235H138.563ZM197.714 34.5082C194.072 38.1694 189.339 40 183.512 40C177.686 40 172.962 38.1694 169.338 34.5082C165.715 30.847 163.904 26.0474 163.904 20.1093C163.904 14.1712 165.706 9.38069 169.311 5.7377C172.952 2.05829 177.686 0.218579 183.512 0.218579C189.339 0.218579 194.072 2.04918 197.714 5.71038C201.355 9.37158 203.176 14.1712 203.176 20.1093C203.176 26.0474 201.355 30.847 197.714 34.5082ZM183.54 38.3607C178.897 38.3607 175.155 36.6849 172.315 33.3333C169.511 29.9818 168.109 25.5738 168.109 20.1093C168.109 14.6448 169.521 10.2368 172.343 6.88525C175.165 3.5337 178.888 1.85792 183.512 1.85792C186.571 1.85792 189.275 2.61384 191.623 4.12568C193.972 5.63752 195.784 7.77778 197.058 10.5464C198.333 13.3151 198.97 16.5027 198.97 20.1093C198.97 25.5738 197.559 29.9818 194.737 33.3333C191.915 36.6849 188.182 38.3607 183.54 38.3607ZM228.134 37.1858C226.277 39.0619 223.801 40 220.706 40C219.104 40 217.401 39.7541 215.599 39.2623C213.796 38.7705 212.404 38.0146 211.42 36.9945C211.311 36.4845 211.257 35.5009 211.257 34.0437C211.257 32.5865 211.53 31.0383 212.076 29.3989H212.567C212.531 29.7996 212.513 30.2004 212.513 30.6011C212.513 32.8233 213.186 34.6721 214.534 36.1475C215.881 37.623 217.665 38.3607 219.887 38.3607C222.181 38.3607 224.065 37.6685 225.54 36.2842C227.014 34.8998 227.752 33.1603 227.752 31.0656C227.752 28.9709 227.042 27.2678 225.622 25.9563L215.135 16.2295C213.168 14.408 212.185 12.204 212.185 9.61749C212.185 7.03096 213.05 4.81785 214.78 2.97814C216.509 1.13843 218.849 0.218579 221.798 0.218579C223.182 0.218579 224.748 0.400729 226.496 0.765027H228.626V7.48634H228.134C228.134 5.77414 227.542 4.40801 226.359 3.38798C225.176 2.36794 223.655 1.85792 221.798 1.85792C219.941 1.85792 218.384 2.47723 217.128 3.71585C215.872 4.95446 215.244 6.50273 215.244 8.36066C215.244 10.2186 215.972 11.8215 217.429 13.1694L228.189 23.1148C230.009 24.7905 230.92 27.0856 230.92 30C230.92 32.9144 229.991 35.3097 228.134 37.1858ZM251.509 39.235V38.6885H250.799C249.852 38.6885 249.033 38.3515 248.341 37.6776C247.649 37.0036 247.303 36.1931 247.303 35.2459V4.91803C247.339 3.97086 247.694 3.1694 248.368 2.51366C249.042 1.85792 249.852 1.53005 250.799 1.53005H251.509V0.983607H239.547V1.53005H240.257C241.204 1.53005 242.014 1.85792 242.688 2.51366C243.361 3.1694 243.716 3.97086 243.753 4.91803V35.2459C243.716 36.1931 243.361 37.0036 242.688 37.6776C242.014 38.3515 241.204 38.6885 240.257 38.6885H239.547V39.235H251.509ZM284.169 34.4262C283.149 36.6484 282.53 38.5064 282.312 40H281.766L267.783 9.67213L265.434 36.3934C265.361 36.9763 265.543 37.5137 265.98 38.0055C266.417 38.4973 266.927 38.7432 267.51 38.7432H268.384V39.235H257.787V38.6885H258.661C259.681 38.6885 260.564 38.3789 261.31 37.7596C262.057 37.1403 262.503 36.3024 262.648 35.2459L266.745 0.218579H267.291L282.53 33.1694L297.441 0.218579H297.933L302.139 35.2459C302.321 36.7031 303.049 37.7231 304.324 38.306C304.87 38.561 305.471 38.6885 306.126 38.6885H307V39.235H295.147V38.7432H295.967C296.586 38.7432 297.114 38.4973 297.551 38.0055C297.988 37.5137 298.17 36.9763 298.097 36.3934L295.639 8.9071L284.169 34.4262Z" fill="black"/>
</svg>
