<svg width="234" height="50" viewBox="0 0 234 50" fill="none" xmlns="http://www.w3.org/2000/svg">
<path fill-rule="evenodd" clip-rule="evenodd" d="M216.13 13.2425C221.941 11.4571 227.596 9.71944 232.843 17.4411C229.664 7.4079 220.354 0.103393 209.309 0C209.038 0.01158 208.768 0.0281229 208.503 0.0579C197.453 1.10176 197.765 13.4369 206.741 14.7124C209.889 15.16 213.032 14.1945 216.13 13.2425ZM5.91389 17.5396C5.5515 14.4477 8.13614 12.3931 11.1137 12.3931C13.7628 12.3931 16.1518 14.2798 16.3936 17.107H21.0577C20.7647 11.8736 15.9908 8.25655 11.344 8.25655C5.44749 8.25655 1.26137 12.255 1.26137 17.7364C1.26137 20.5512 2.75222 22.9979 5.07353 24.3652C6.28207 25.0691 8.17082 25.7217 9.97866 26.3156L10.2922 26.417L10.2923 26.417L10.2924 26.417L10.2925 26.4171L10.2928 26.4172C11.0907 26.6751 11.8592 26.9235 12.5418 27.1642C13.3079 27.4297 13.9642 27.6878 14.4133 27.9368C16.1121 28.8714 17.0326 30.3082 17.0326 32.1949C17.0326 35.7194 13.9526 37.6069 10.9643 37.6069C7.73908 37.6069 5.17672 35.8004 4.58401 31.7276H0C0.149416 37.6871 5.07849 41.7443 10.9643 41.7443C16.7849 41.7443 21.7256 37.635 21.7256 31.4852C21.7256 28.9872 20.7011 26.8921 18.9676 25.2601C17.9547 24.3015 15.564 23.3552 13.2386 22.5364C12.6907 22.3425 12.1478 22.155 11.629 21.9758L11.629 21.9758L11.6287 21.9757L11.6284 21.9756C11.0515 21.7763 10.5044 21.5873 10.0133 21.4114C9.0863 21.0822 8.34995 20.7886 7.99829 20.5512C6.72536 19.686 6.06991 18.8556 5.91389 17.5396ZM111.206 8.42363C120.42 8.42363 127.726 15.7397 127.726 25.0691C127.726 34.1627 120.276 41.5764 111.206 41.5764C102.079 41.5764 94.6339 34.1627 94.6339 25.0691C94.6339 15.786 101.941 8.42363 111.206 8.42363ZM111.011 12.8488C104.561 12.8488 99.4308 18.2782 99.4308 25.1154C99.4308 31.8136 104.613 37.1445 111.206 37.1445C117.747 37.1445 122.925 31.8136 122.925 25.1154C122.925 18.088 117.84 12.8488 111.011 12.8488ZM162.8 41.2811H167.55V8.71148H162.8V41.2811ZM138.822 8.71727L154.181 8.71148V13.0796H140.412V23.6555H154.181V28.0178H140.412V41.2819H135.667V11.8803C135.667 10.1251 137.078 8.71727 138.822 8.71727ZM66.3291 41.2819L66.3522 16.3055C67.2908 17.8919 75.9544 32.3562 80.6705 40.0065C81.3268 41.0801 82.2943 41.5764 83.4747 41.5764C85.2941 41.5764 86.7677 40.0925 86.7677 38.2695L86.785 8.71148H82.035L82.0062 33.6829C81.0676 32.0956 72.4014 17.638 67.6936 9.98693C67.0373 8.91992 66.0707 8.42363 64.8894 8.42363C63.07 8.42363 61.5965 9.90091 61.5965 11.7239L61.5791 41.2819H66.3291ZM33.8761 32.1072L30.513 41.2819H25.5551L37.221 10.4658C37.6652 9.27145 38.8803 8.42363 40.2267 8.42363C41.569 8.42363 42.7841 9.27145 43.2274 10.4658L54.8934 41.2819H49.9354L46.5781 32.1014L33.8761 32.1072ZM40.2267 14.7008L35.4421 27.8507L45.0179 27.8565L40.2267 14.7008ZM233.063 18.145C233.678 20.3204 234 22.6224 234 24.9996C234 38.8013 222.829 50 209.05 50C202.993 50 197.453 47.8312 193.134 44.2423C194.833 44.9222 196.848 45.2051 198.569 45.2108C209.851 45.2711 213.097 37.7997 216.198 30.6638C219.309 23.503 222.273 16.6801 233.063 18.145ZM188.395 38.7897C191.844 43.5202 196.808 44.0909 199.935 42.176C201.708 41.0801 202.912 39.0784 202.912 36.8335C202.912 34.5895 201.737 32.6217 199.964 31.5133C198.763 30.7927 197.354 30.3101 195.823 29.7854C192.279 28.5713 188.078 27.1321 184.278 21.9995C184.157 22.9747 184.099 23.9731 184.099 24.983C184.099 28.7854 184.947 32.3901 186.46 35.6151C186.996 36.6789 187.63 37.7401 188.395 38.7897Z" fill="black"/>
</svg>
