<svg width="65" height="65" viewBox="0 0 65 65" fill="none" xmlns="http://www.w3.org/2000/svg">
<path fill-rule="evenodd" clip-rule="evenodd" d="M65 65V0H0V65H65ZM1.95195 1.95195H63.048V63.048H1.95195V1.95195ZM53.0882 10.7499L51.3273 18.7387H49.114L46.2613 6.24625H48.6123L50.2354 13.9651L51.9471 6.24625H54.2391L55.8917 13.9651L57.5837 6.24625H59.9249L57.0722 18.7387H54.8588L53.0882 10.7499ZM32.7879 30.4646L31.027 38.4535H28.8137L25.961 25.961H28.312L29.9351 33.6798L31.6468 25.961H33.9388L35.5914 33.6798L37.2834 25.961H39.6246L36.7719 38.4535H34.5585L32.7879 30.4646ZM56.8018 34.7647V38.4535H47.8804V36.8188C47.8804 36.3686 47.9763 35.9558 48.1682 35.5806C48.36 35.2054 48.611 34.8563 48.9212 34.5333C49.2314 34.2103 49.5863 33.9069 49.986 33.623C50.3857 33.3392 50.795 33.0618 51.2139 32.791C51.6328 32.5202 52.0421 32.251 52.4418 31.9835C52.8415 31.716 53.1965 31.4386 53.5066 31.1515C53.8168 30.8644 54.0678 30.5593 54.2597 30.2363C54.4515 29.9133 54.5475 29.5593 54.5475 29.1743C54.5475 28.7958 54.4963 28.463 54.394 28.1759C54.2917 27.8888 54.151 27.6506 53.9719 27.4614C53.7928 27.2721 53.5834 27.1286 53.3436 27.0307C53.1037 26.9328 52.8463 26.8839 52.5713 26.8839C52.226 26.8839 51.911 26.9459 51.6264 27.0699C51.3418 27.1938 51.0956 27.37 50.8878 27.5984C50.6799 27.8268 50.512 28.109 50.3841 28.4451C50.2562 28.7811 50.1795 29.158 50.1539 29.5756H47.8228C47.8996 28.9035 48.061 28.2852 48.3073 27.7208C48.5535 27.1563 48.878 26.6718 49.2809 26.2672C49.6838 25.8627 50.1619 25.5478 50.7151 25.3227C51.2683 25.0975 51.8902 24.985 52.5809 24.985C53.3483 24.985 53.9991 25.0992 54.5331 25.3276C55.0671 25.556 55.502 25.8561 55.8377 26.2281C56.1735 26.6 56.4181 27.0242 56.5716 27.5005C56.7251 27.9769 56.8018 28.463 56.8018 28.959C56.8018 29.5854 56.6659 30.1482 56.3941 30.6474C56.1223 31.1466 55.7722 31.605 55.3437 32.0227C54.9152 32.4403 54.4403 32.8285 53.9191 33.1874L52.3843 34.2446C51.8822 34.5904 51.4218 34.9411 51.0029 35.2968C50.584 35.6524 50.2658 36.0358 50.0484 36.4469H54.7011V34.7647H56.8018Z" fill="black"/>
</svg>
