<?xml version="1.0" encoding="UTF-8"?>
<svg width="160px" height="46px" viewBox="0 0 160 46" version="1.1" xmlns="http://www.w3.org/2000/svg" xmlns:xlink="http://www.w3.org/1999/xlink">
    <!-- Generator: Sketch 63.1 (92452) - https://sketch.com -->
    <title>app-store-2</title>
    <desc>Created with Sketch.</desc>
    <g id="Landing" stroke="none" stroke-width="1" fill="none" fill-rule="evenodd">
        <g id="home" transform="translate(-552.000000, -326.000000)" fill-rule="nonzero">
            <g id="Hero/1/Dark" transform="translate(0.000000, -0.000000)">
                <g id="Hero">
                    <g id="Contents" transform="translate(384.000000, 120.000000)">
                        <g id="app-store-2" transform="translate(168.000000, 206.000000)">
                            <path d="M152,0 C156.418278,0 160,3.581722 160,8 L160,38 C160,42.418278 156.418278,46 152,46 L8,46 C3.581722,46 0,42.418278 0,38 L0,8 C0,3.581722 3.581722,0 8,0 L152,0 Z" id="Path" fill="#4737D6"></path>
                            <path d="M152,2 L8,2 C4.76160306,2 2.12242824,4.56557489 2.00413847,7.77506174 L2,8 L2,38 C2,41.2383969 4.56557489,43.8775718 7.77506174,43.9958615 L8,44 L152,44 C155.238397,44 157.877572,41.4344251 157.995862,38.2249383 L158,38 L158,8 C158,4.76160306 155.434425,2.12242824 152.224938,2.00413847 L152,2 Z" id="Path" fill="#FFFFFF"></path>
                            <path d="M34.3749561,22.8267411 C34.4020976,20.8011942 35.5065163,18.9302051 37.3012772,17.8692777 C36.1639,16.307428 34.3271627,15.3526831 32.3451482,15.2930578 C30.2599073,15.0826075 28.2383571,16.4928015 27.1757564,16.4928015 C26.092592,16.4928015 24.4565513,15.3139524 22.6948057,15.3488046 C20.3768077,15.4208114 18.2681915,16.6572784 17.1404384,18.6058181 C14.7388425,22.603754 16.5302169,28.4793737 18.8307446,31.7110033 C19.9817474,33.2934404 21.3269391,35.0610634 23.0870953,34.9983797 C24.8095139,34.9296902 25.4528039,33.942331 27.5319104,33.942331 C29.5917197,33.942331 30.1952604,34.9983797 31.9911301,34.9585247 C33.8393655,34.9296782 35.0038415,33.369055 36.1144616,31.7716334 C36.9414552,30.6440891 37.5778254,29.3979071 38,28.0792481 C35.8048576,27.186549 34.3775182,25.1184057 34.3749561,22.8267411 L34.3749561,22.8267411 Z M30.982882,13.1677194 C31.9906167,12.0045375 32.4870894,10.5094642 32.3668668,9 C30.8272723,9.15548024 29.4051182,9.86298218 28.3837691,10.9815359 C27.3752338,12.0851394 26.8643122,13.5289483 26.9635368,14.9949576 C28.5237755,15.0104038 30.0051892,14.336937 30.982882,13.1677194 L30.982882,13.1677194 Z" id="Icon" fill="#4737D6"></path>
                            <path d="M53.0585938,29 L54.1396484,26.0292969 L59,26.0292969 L60.0810547,29 L62.9638672,29 L58.0068359,16.3964844 L55.1328125,16.3964844 L50.1757812,29 L53.0585938,29 Z M58.1035156,23.6914062 L55.0361328,23.6914062 L56.5742188,19.5517578 L58.1035156,23.6914062 Z M66.6464844,32.7792969 L66.6464844,27.9189453 L66.9189453,28.2441406 C67.1005859,28.4492188 67.409668,28.6557617 67.8461914,28.8637695 C68.2827148,29.0717773 68.7529297,29.1757812 69.2568359,29.1757812 C70.3994141,29.1757812 71.3911133,28.7319336 72.2319336,27.8442383 C73.0727539,26.956543 73.4931641,25.8710938 73.4931641,24.5878906 C73.4931641,23.3046875 73.0727539,22.2192383 72.2319336,21.331543 C71.3911133,20.4438477 70.3994141,20 69.2568359,20 C68.9345703,20 68.6240234,20.0454102 68.3251953,20.1362305 C68.0263672,20.2270508 67.7832031,20.3295898 67.5957031,20.4438477 C67.4082031,20.5581055 67.2338867,20.6870117 67.0727539,20.8305664 C66.9116211,20.9741211 66.8061523,21.0722656 66.7563477,21.125 C66.706543,21.1777344 66.6699219,21.2216797 66.6464844,21.2568359 L66.6464844,21.2568359 L66.6464844,20.1757812 L64.2207031,20.1757812 L64.2207031,32.7792969 L66.6464844,32.7792969 Z M68.8129883,27.0224609 C68.2124023,27.0224609 67.7011719,26.7939453 67.2792969,26.3369141 C66.8574219,25.8798828 66.6464844,25.296875 66.6464844,24.5878906 C66.6464844,23.8789062 66.8574219,23.2973633 67.2792969,22.8432617 C67.7011719,22.3891602 68.2124023,22.1621094 68.8129883,22.1621094 C69.4135742,22.1621094 69.9248047,22.3876953 70.3466797,22.8388672 C70.7626953,23.2958984 70.9707031,23.8789062 70.9707031,24.5878906 C70.9707031,25.296875 70.7612305,25.8798828 70.3422852,26.3369141 C69.9233398,26.7939453 69.4135742,27.0224609 68.8129883,27.0224609 Z M77.7119141,32.7792969 L77.7119141,27.9189453 L77.984375,28.2441406 C78.1660156,28.4492188 78.4750977,28.6557617 78.9116211,28.8637695 C79.3481445,29.0717773 79.8183594,29.1757812 80.3222656,29.1757812 C81.4648438,29.1757812 82.456543,28.7319336 83.2973633,27.8442383 C84.1381836,26.956543 84.5585938,25.8710938 84.5585938,24.5878906 C84.5585938,23.3046875 84.1381836,22.2192383 83.2973633,21.331543 C82.456543,20.4438477 81.4648438,20 80.3222656,20 C80,20 79.6894531,20.0454102 79.390625,20.1362305 C79.0917969,20.2270508 78.8486328,20.3295898 78.6611328,20.4438477 C78.4736328,20.5581055 78.2993164,20.6870117 78.1381836,20.8305664 C77.9770508,20.9741211 77.871582,21.0722656 77.8217773,21.125 C77.7719727,21.1777344 77.7353516,21.2216797 77.7119141,21.2568359 L77.7119141,21.2568359 L77.7119141,20.1757812 L75.2861328,20.1757812 L75.2861328,32.7792969 L77.7119141,32.7792969 Z M79.878418,27.0224609 C79.277832,27.0224609 78.7666016,26.7939453 78.3447266,26.3369141 C77.9228516,25.8798828 77.7119141,25.296875 77.7119141,24.5878906 C77.7119141,23.8789062 77.9228516,23.2973633 78.3447266,22.8432617 C78.7666016,22.3891602 79.277832,22.1621094 79.878418,22.1621094 C80.4790039,22.1621094 80.9902344,22.3876953 81.4121094,22.8388672 C81.828125,23.2958984 82.0361328,23.8789062 82.0361328,24.5878906 C82.0361328,25.296875 81.8266602,25.8798828 81.4077148,26.3369141 C80.9887695,26.7939453 80.4790039,27.0224609 79.878418,27.0224609 Z M94.1738281,29.2724609 C95.6621094,29.2724609 96.8295898,28.9033203 97.6762695,28.1650391 C98.5229492,27.4267578 98.9462891,26.4746094 98.9462891,25.3085938 C98.9462891,24.4824219 98.7324219,23.7998047 98.3046875,23.2607422 C97.8769531,22.7216797 97.3569336,22.3349609 96.7446289,22.1005859 C96.1323242,21.8662109 95.5229492,21.6611328 94.9165039,21.4853516 C94.3100586,21.3095703 93.7944336,21.0942383 93.3696289,20.8393555 C92.9448242,20.5844727 92.7324219,20.2460938 92.7324219,19.8242188 C92.7324219,19.4492188 92.8891602,19.1298828 93.2026367,18.8662109 C93.5161133,18.6025391 93.9306641,18.4707031 94.4462891,18.4707031 C94.8740234,18.4707031 95.2900391,18.5703125 95.6943359,18.7695312 C96.0986328,18.96875 96.3637695,19.128418 96.4897461,19.2485352 C96.6157227,19.3686523 96.7138672,19.4697266 96.7841797,19.5517578 L96.7841797,19.5517578 L98.4013672,17.8378906 L98.2431641,17.6621094 C98.1435547,17.5390625 97.9780273,17.394043 97.746582,17.2270508 C97.5151367,17.0600586 97.2456055,16.8959961 96.9379883,16.7348633 C96.6303711,16.5737305 96.2363281,16.4331055 95.7558594,16.3129883 C95.2753906,16.1928711 94.7773438,16.1328125 94.2617188,16.1328125 C92.9550781,16.1328125 91.8930664,16.4931641 91.0756836,17.2138672 C90.2583008,17.9345703 89.8496094,18.8046875 89.8496094,19.8242188 C89.8496094,20.6503906 90.0634766,21.3330078 90.4912109,21.8720703 C90.9189453,22.4111328 91.4360352,22.7978516 92.0424805,23.0322266 C92.6489258,23.2666016 93.2583008,23.4702148 93.8706055,23.6430664 C94.4829102,23.815918 95.0014648,24.03125 95.4262695,24.2890625 C95.8510742,24.546875 96.0634766,24.8867188 96.0634766,25.3085938 C96.0634766,25.7773438 95.8803711,26.1640625 95.5141602,26.46875 C95.1479492,26.7734375 94.6396484,26.9257812 93.9892578,26.9257812 C93.4267578,26.9257812 92.8876953,26.7998047 92.3720703,26.5478516 C91.8564453,26.2958984 91.5239258,26.0952148 91.3745117,25.9458008 C91.2250977,25.7963867 91.109375,25.6748047 91.0273438,25.5810547 L91.0273438,25.5810547 L89.4013672,27.1982422 L89.6035156,27.4179688 C89.7207031,27.5585938 89.9140625,27.7314453 90.1835938,27.9365234 C90.453125,28.1416016 90.7651367,28.34375 91.1196289,28.5429688 C91.4741211,28.7421875 91.925293,28.9135742 92.4731445,29.0571289 C93.0209961,29.2006836 93.5878906,29.2724609 94.1738281,29.2724609 Z M104.421875,29.1757812 C105.025391,29.1816406 105.567383,29.09375 106.047852,28.9121094 L106.047852,28.9121094 L106.047852,26.8378906 L105.942383,26.8730469 C105.866211,26.9082031 105.753418,26.9418945 105.604004,26.9741211 C105.45459,27.0063477 105.300781,27.0224609 105.142578,27.0224609 C104.832031,27.0224609 104.575684,26.9257812 104.373535,26.7324219 C104.171387,26.5390625 104.070312,26.3046875 104.070312,26.0292969 L104.070312,26.0292969 L104.070312,22.5224609 L105.863281,22.5224609 L105.863281,20.3603516 L104.070312,20.3603516 L104.070312,17.5742188 L101.908203,17.5742188 L101.908203,19.1914062 C101.908203,19.5371094 101.811523,19.8183594 101.618164,20.0351562 C101.424805,20.2519531 101.19043,20.3603516 100.915039,20.3603516 L100.915039,20.3603516 L100.106445,20.3603516 L100.106445,22.5224609 L101.635742,22.5224609 L101.635742,26.1171875 C101.635742,28.15625 102.564453,29.1757812 104.421875,29.1757812 Z M111.892578,29.1757812 C113.152344,29.1757812 114.246582,28.7172852 115.175293,27.800293 C116.104004,26.8833008 116.568359,25.8125 116.568359,24.5878906 C116.568359,23.3632812 116.105469,22.2910156 115.179688,21.3710938 C114.248047,20.4570312 113.152344,20 111.892578,20 C110.632812,20 109.537109,20.4584961 108.605469,21.3754883 C107.673828,22.2924805 107.208008,23.3632812 107.208008,24.5878906 C107.208008,25.8125 107.673828,26.8833008 108.605469,27.800293 C109.537109,28.7172852 110.632812,29.1757812 111.892578,29.1757812 Z M111.892578,26.9257812 C111.306641,26.9257812 110.799805,26.7016602 110.37207,26.253418 C109.944336,25.8051758 109.730469,25.2514648 109.730469,24.5922852 C109.730469,23.9331055 109.944336,23.3779297 110.37207,22.9267578 C110.799805,22.4755859 111.306641,22.25 111.892578,22.25 C112.478516,22.25 112.985352,22.4755859 113.413086,22.9267578 C113.84082,23.3779297 114.054688,23.9331055 114.054688,24.5922852 C114.054688,25.2514648 113.84082,25.8051758 113.413086,26.253418 C112.985352,26.7016602 112.478516,26.9257812 111.892578,26.9257812 Z M120.795898,29 L120.795898,24.7724609 C120.795898,24.0166016 120.981934,23.4365234 121.354004,23.0322266 C121.726074,22.6279297 122.231445,22.4257812 122.870117,22.4257812 C123.227539,22.4316406 123.49707,22.4638672 123.678711,22.5224609 L123.678711,22.5224609 L123.678711,20.0878906 L123.318359,20.0878906 C122.837891,20.0878906 122.379395,20.1962891 121.942871,20.4130859 C121.506348,20.6298828 121.223633,20.8041992 121.094727,20.9360352 C120.96582,21.0678711 120.866211,21.1748047 120.795898,21.2568359 L120.795898,21.2568359 L120.795898,20.1757812 L118.370117,20.1757812 L118.370117,29 L120.795898,29 Z M129.163086,29.1757812 C129.620117,29.1757812 130.063965,29.1230469 130.494629,29.0175781 C130.925293,28.9121094 131.275391,28.7905273 131.544922,28.652832 C131.814453,28.5151367 132.069336,28.3583984 132.30957,28.1826172 C132.549805,28.0068359 132.708008,27.8808594 132.78418,27.8046875 L132.78418,27.8046875 L132.942383,27.6464844 L131.685547,26.0292969 L131.430664,26.3017578 C131.272461,26.4833984 130.998535,26.6635742 130.608887,26.8422852 C130.219238,27.0209961 129.795898,27.1103516 129.338867,27.1103516 C128.706055,27.1103516 128.181641,26.9448242 127.765625,26.6137695 C127.349609,26.2827148 127.094727,25.8769531 127.000977,25.3964844 L127.000977,25.3964844 L133.390625,25.3964844 L133.478516,24.4121094 C133.478516,23.1523438 133.05957,22.1020508 132.22168,21.2612305 C131.383789,20.4204102 130.334961,20 129.075195,20 C127.81543,20 126.734375,20.449707 125.832031,21.3491211 C124.929688,22.2485352 124.478516,23.328125 124.478516,24.5878906 C124.478516,25.8476562 124.935547,26.9272461 125.849609,27.8266602 C126.763672,28.7260742 127.868164,29.1757812 129.163086,29.1757812 Z M131.052734,23.6914062 L127.000977,23.6914062 C127.147461,23.2109375 127.400879,22.8212891 127.76123,22.5224609 C128.121582,22.2236328 128.55957,22.0742188 129.075195,22.0742188 C129.59082,22.0742188 130.027344,22.2265625 130.384766,22.53125 C130.736328,22.8359375 130.958984,23.2226562 131.052734,23.6914062 L131.052734,23.6914062 Z" id="AppStore" fill="#4737D6"></path>
                        </g>
                    </g>
                </g>
            </g>
        </g>
    </g>
</svg>