<?xml version="1.0" encoding="UTF-8"?>
<svg width="160px" height="46px" viewBox="0 0 160 46" version="1.1" xmlns="http://www.w3.org/2000/svg" xmlns:xlink="http://www.w3.org/1999/xlink">
    <!-- Generator: Sketch 63.1 (92452) - https://sketch.com -->
    <title>play-market-1</title>
    <desc>Created with Sketch.</desc>
    <g id="Landing" stroke="none" stroke-width="1" fill="none" fill-rule="evenodd">
        <g id="home" transform="translate(-728.000000, -260.000000)" fill="#FFFFFF" fill-rule="nonzero">
            <g id="Hero/1/Dark" transform="translate(0.000000, -0.000000)">
                <g id="Hero">
                    <g id="Contents" transform="translate(384.000000, 120.000000)">
                        <g id="play-market-1" transform="translate(344.000000, 140.000000)">
                            <path d="M152,0 C156.418278,0 160,3.581722 160,8 L160,38 C160,42.418278 156.418278,46 152,46 L8,46 C3.581722,46 0,42.418278 0,38 L0,8 C0,3.581722 3.581722,0 8,0 L152,0 Z M152,2 L8,2 C4.76160306,2 2.12242824,4.56557489 2.00413847,7.77506174 L2,8 L2,38 C2,41.2383969 4.56557489,43.8775718 7.77506174,43.9958615 L8,44 L152,44 C155.238397,44 157.877572,41.4344251 157.995862,38.2249383 L158,38 L158,8 C158,4.76160306 155.434425,2.12242824 152.224938,2.00413847 L152,2 Z" id="Path"></path>
                            <g id="google-play" transform="translate(15.000000, 11.000000)">
                                <path d="M1.18912194,0.865142196 C1.86701388,0.369273215 2.79859195,0.3735229 3.41497261,0.859167965 L3.41497261,0.859167965 L15.9224312,7.92755506 C15.9432367,7.93931296 15.9628175,7.95226958 15.9811536,7.96627848 L20.0988887,10.2943314 C21.6373626,11.1579312 21.6373626,12.7529787 20.1002772,13.6267195 L20.1002772,13.6267195 L15.9562899,15.967087 L15.9309921,15.985762 L3.48445047,23.0135689 C2.82739534,23.524472 1.92144337,23.5432571 1.24796533,23.0836774 C1.19612054,23.0580455 1.14721852,23.0246722 1.1041683,22.9818471 L1.1041683,22.9818471 L1.01358937,22.8888438 C1.01169203,22.886579 1.00979962,22.8843108 1.00791216,22.8820393 L1.06772806,22.9441423 C1.04096938,22.9207426 1.0173305,22.8951627 0.996827798,22.8679121 C0.646856407,22.4404787 0.470737975,21.8974957 0.503066691,21.3754972 L0.503066691,21.3754972 L0.503970978,2.56787758 C0.470220124,2.00745979 0.65255213,1.45543766 1.04424208,0.991082897 L0.940127924,1.12350397 C0.968358053,1.06647854 1.00807557,1.01385288 1.05916717,0.969174749 C1.07050713,0.959258281 1.08193784,0.949498152 1.09345616,0.939894259 L1.1041683,0.931469993 C1.1258403,0.909911305 1.1489951,0.890748027 1.1733032,0.873980159 Z M12.0612899,12.790087 L2.39128993,22.402087 L2.47399004,22.3919665 C2.59064775,22.3702667 2.70774867,22.3262085 2.82046096,22.2587932 L2.93153142,22.1835551 L14.7612899,15.496087 L12.0612899,12.790087 Z M1.52756767,2.18974427 C1.50460161,2.30030314 1.49610631,2.41681604 1.50306669,2.53781982 L1.50306669,2.53781982 L1.50134533,21.5357966 C1.50540844,21.6220767 1.51849013,21.7068941 1.53940811,21.7880433 L1.52728993,21.731087 L11.3542899,11.957087 Z M15.7572899,8.98708703 L12.7722899,11.957087 L15.7622899,14.929087 L19.6070541,12.7568173 C20.3818821,12.3163734 20.459365,11.7708206 19.8402666,11.3142415 L19.7306338,11.239002 L19.6081022,11.1656099 L15.7572899,8.98708703 Z M2.38528993,1.50408703 L12.0622899,11.130087 L14.7612899,8.41908703 L2.86205356,1.68918175 C2.72618749,1.58353703 2.56766969,1.52235969 2.40564309,1.50509542 L2.38528993,1.50408703 Z" id="Combined-Shape"></path>
                            </g>
                            <path d="M52.7431641,29.2724609 C53.4111328,29.2724609 54.0600586,29.1845703 54.6899414,29.0087891 C55.3198242,28.8330078 55.8295898,28.6381836 56.2192383,28.4243164 C56.6088867,28.2104492 56.9780273,27.9643555 57.3266602,27.6860352 C57.675293,27.4077148 57.9008789,27.2114258 58.003418,27.097168 C58.105957,26.9829102 58.1806641,26.8964844 58.2275391,26.8378906 L58.2275391,26.8378906 L58.2275391,22.1621094 L53.2792969,22.1621094 L53.2792969,24.1396484 L55.5292969,24.1396484 L55.5292969,25.8535156 L55.2568359,26.0820312 C55.0693359,26.2519531 54.7441406,26.4204102 54.28125,26.5874023 C53.8183594,26.7543945 53.3056641,26.8378906 52.7431641,26.8378906 C51.5654297,26.8378906 50.5810547,26.4423828 49.7900391,25.6513672 C48.9990234,24.8603516 48.6035156,23.8759766 48.6035156,22.6982422 C48.6035156,21.5205078 48.9990234,20.5361328 49.7900391,19.7451172 C50.5810547,18.9541016 51.5654297,18.5585938 52.7431641,18.5585938 C53.1708984,18.5585938 53.5898438,18.6245117 54,18.7563477 C54.4101562,18.8881836 54.7412109,19.0317383 54.9931641,19.1870117 C55.2451172,19.3422852 55.4780273,19.5224609 55.6918945,19.7275391 C55.9057617,19.9326172 56.043457,20.0776367 56.1049805,20.1625977 C56.1665039,20.2475586 56.2148438,20.3134766 56.25,20.3603516 L56.25,20.3603516 L57.9638672,18.6464844 L57.7617188,18.3828125 C57.6328125,18.2128906 57.4204102,18.0048828 57.1245117,17.7587891 C56.8286133,17.5126953 56.4887695,17.2666016 56.1049805,17.0205078 C55.7211914,16.7744141 55.2304688,16.5649414 54.6328125,16.3920898 C54.0351562,16.2192383 53.4052734,16.1328125 52.7431641,16.1328125 C50.8212891,16.1328125 49.199707,16.7744141 47.878418,18.0576172 C46.5571289,19.3408203 45.8964844,20.8876953 45.8964844,22.6982422 C45.8964844,24.5087891 46.5571289,26.0571289 47.878418,27.3432617 C49.199707,28.6293945 50.8212891,29.2724609 52.7431641,29.2724609 Z M64.7929688,29.1757812 C66.0527344,29.1757812 67.1469727,28.7172852 68.0756836,27.800293 C69.0043945,26.8833008 69.46875,25.8125 69.46875,24.5878906 C69.46875,23.3632812 69.0058594,22.2910156 68.0800781,21.3710938 C67.1484375,20.4570312 66.0527344,20 64.7929688,20 C63.5332031,20 62.4375,20.4584961 61.5058594,21.3754883 C60.5742188,22.2924805 60.1083984,23.3632812 60.1083984,24.5878906 C60.1083984,25.8125 60.5742188,26.8833008 61.5058594,27.800293 C62.4375,28.7172852 63.5332031,29.1757812 64.7929688,29.1757812 Z M64.7929688,26.9257812 C64.2070312,26.9257812 63.7001953,26.7016602 63.2724609,26.253418 C62.8447266,25.8051758 62.6308594,25.2514648 62.6308594,24.5922852 C62.6308594,23.9331055 62.8447266,23.3779297 63.2724609,22.9267578 C63.7001953,22.4755859 64.2070312,22.25 64.7929688,22.25 C65.3789062,22.25 65.8857422,22.4755859 66.3134766,22.9267578 C66.7412109,23.3779297 66.9550781,23.9331055 66.9550781,24.5922852 C66.9550781,25.2514648 66.7412109,25.8051758 66.3134766,26.253418 C65.8857422,26.7016602 65.3789062,26.9257812 64.7929688,26.9257812 Z M75.4101562,29.1757812 C76.6699219,29.1757812 77.7641602,28.7172852 78.6928711,27.800293 C79.621582,26.8833008 80.0859375,25.8125 80.0859375,24.5878906 C80.0859375,23.3632812 79.6230469,22.2910156 78.6972656,21.3710938 C77.765625,20.4570312 76.6699219,20 75.4101562,20 C74.1503906,20 73.0546875,20.4584961 72.1230469,21.3754883 C71.1914062,22.2924805 70.7255859,23.3632812 70.7255859,24.5878906 C70.7255859,25.8125 71.1914062,26.8833008 72.1230469,27.800293 C73.0546875,28.7172852 74.1503906,29.1757812 75.4101562,29.1757812 Z M75.4101562,26.9257812 C74.8242188,26.9257812 74.3173828,26.7016602 73.8896484,26.253418 C73.4619141,25.8051758 73.2480469,25.2514648 73.2480469,24.5922852 C73.2480469,23.9331055 73.4619141,23.3779297 73.8896484,22.9267578 C74.3173828,22.4755859 74.8242188,22.25 75.4101562,22.25 C75.9960938,22.25 76.5029297,22.4755859 76.9306641,22.9267578 C77.3583984,23.3779297 77.5722656,23.9331055 77.5722656,24.5922852 C77.5722656,25.2514648 77.3583984,25.8051758 76.9306641,26.253418 C76.5029297,26.7016602 75.9960938,26.9257812 75.4101562,26.9257812 Z M85.6669922,32.7792969 C87.0087891,32.7792969 88.1235352,32.347168 89.0112305,31.4829102 C89.8989258,30.6186523 90.3427734,29.5507812 90.3427734,28.2792969 L90.3427734,28.2792969 L90.3427734,20.1757812 L87.9169922,20.1757812 L87.9169922,21.2568359 L87.6445312,20.9316406 C87.46875,20.7324219 87.1611328,20.5273438 86.7216797,20.3164062 C86.2822266,20.1054688 85.8105469,20 85.3066406,20 C84.2988281,20 83.3862305,20.4379883 82.5688477,21.3139648 C81.7514648,22.1899414 81.3427734,23.2226562 81.3427734,24.4121094 C81.3427734,25.6015625 81.7514648,26.6342773 82.5688477,27.5102539 C83.3862305,28.3862305 84.2988281,28.8242188 85.3066406,28.8242188 C85.6289062,28.8242188 85.940918,28.7788086 86.2426758,28.6879883 C86.5444336,28.597168 86.7875977,28.4946289 86.972168,28.3803711 C87.1567383,28.2661133 87.3295898,28.137207 87.4907227,27.9936523 C87.6518555,27.8500977 87.7573242,27.7504883 87.8071289,27.6948242 C87.8569336,27.6391602 87.8935547,27.59375 87.9169922,27.5585938 L87.9169922,27.5585938 L87.9169922,28.2792969 C87.9169922,29 87.7075195,29.5698242 87.2885742,29.9887695 C86.8696289,30.4077148 86.2998047,30.6171875 85.5791016,30.6171875 C85.0986328,30.6171875 84.6474609,30.5102539 84.2255859,30.2963867 C83.8037109,30.0825195 83.5327148,29.9082031 83.4125977,29.7734375 C83.2924805,29.6386719 83.203125,29.5302734 83.1445312,29.4482422 L83.1445312,29.4482422 L81.6152344,30.8896484 L81.7822266,31.0917969 C81.8759766,31.2207031 82.0371094,31.3789062 82.265625,31.5664062 C82.4941406,31.7539062 82.7607422,31.9370117 83.0654297,32.1157227 C83.3701172,32.2944336 83.7539062,32.449707 84.2167969,32.581543 C84.6796875,32.7133789 85.1630859,32.7792969 85.6669922,32.7792969 Z M85.847168,26.5742188 C85.293457,26.5742188 84.824707,26.3691406 84.440918,25.9589844 C84.0571289,25.5488281 83.8652344,25.0317383 83.8652344,24.4077148 C83.8652344,23.7836914 84.0585938,23.2666016 84.4453125,22.8564453 C84.8261719,22.4521484 85.293457,22.25 85.847168,22.25 C86.4008789,22.25 86.8842773,22.4594727 87.2973633,22.878418 C87.7104492,23.2973633 87.9169922,23.8071289 87.9169922,24.4077148 C87.9169922,25.0083008 87.7104492,25.5195312 87.2973633,25.9414062 C86.8842773,26.3632812 86.4008789,26.5742188 85.847168,26.5742188 Z M95.203125,29 L95.203125,16.3964844 L92.7685547,16.3964844 L92.7685547,29 L95.203125,29 Z M101.768555,29.1757812 C102.225586,29.1757812 102.669434,29.1230469 103.100098,29.0175781 C103.530762,28.9121094 103.880859,28.7905273 104.150391,28.652832 C104.419922,28.5151367 104.674805,28.3583984 104.915039,28.1826172 C105.155273,28.0068359 105.313477,27.8808594 105.389648,27.8046875 L105.389648,27.8046875 L105.547852,27.6464844 L104.291016,26.0292969 L104.036133,26.3017578 C103.87793,26.4833984 103.604004,26.6635742 103.214355,26.8422852 C102.824707,27.0209961 102.401367,27.1103516 101.944336,27.1103516 C101.311523,27.1103516 100.787109,26.9448242 100.371094,26.6137695 C99.9550781,26.2827148 99.7001953,25.8769531 99.6064453,25.3964844 L99.6064453,25.3964844 L105.996094,25.3964844 L106.083984,24.4121094 C106.083984,23.1523438 105.665039,22.1020508 104.827148,21.2612305 C103.989258,20.4204102 102.94043,20 101.680664,20 C100.420898,20 99.3398438,20.449707 98.4375,21.3491211 C97.5351562,22.2485352 97.0839844,23.328125 97.0839844,24.5878906 C97.0839844,25.8476562 97.5410156,26.9272461 98.4550781,27.8266602 C99.3691406,28.7260742 100.473633,29.1757812 101.768555,29.1757812 Z M103.658203,23.6914062 L99.6064453,23.6914062 C99.7529297,23.2109375 100.006348,22.8212891 100.366699,22.5224609 C100.727051,22.2236328 101.165039,22.0742188 101.680664,22.0742188 C102.196289,22.0742188 102.632812,22.2265625 102.990234,22.53125 C103.341797,22.8359375 103.564453,23.2226562 103.658203,23.6914062 L103.658203,23.6914062 Z M114.811523,29 L114.811523,24.8603516 L117.413086,24.8603516 C118.713867,24.8603516 119.789062,24.4545898 120.638672,23.6430664 C121.488281,22.831543 121.913086,21.8266602 121.913086,20.628418 C121.913086,19.4301758 121.486816,18.425293 120.634277,17.6137695 C119.781738,16.8022461 118.708008,16.3964844 117.413086,16.3964844 L117.413086,16.3964844 L112.104492,16.3964844 L112.104492,29 L114.811523,29 Z M117.325195,22.4257812 L114.811523,22.4257812 L114.811523,18.8310547 L117.325195,18.8310547 C117.864258,18.8310547 118.313965,19.0053711 118.674316,19.3540039 C119.034668,19.7026367 119.214844,20.1289062 119.214844,20.6328125 C119.214844,21.1367188 119.034668,21.5615234 118.674316,21.9072266 C118.313965,22.2529297 117.864258,22.4257812 117.325195,22.4257812 L117.325195,22.4257812 Z M126.325195,29 L126.325195,16.3964844 L123.890625,16.3964844 L123.890625,29 L126.325195,29 Z M131.176758,29.1757812 C131.633789,29.1757812 132.073242,29.0776367 132.495117,28.8813477 C132.916992,28.6850586 133.190918,28.5268555 133.316895,28.4067383 C133.442871,28.2866211 133.541016,28.1855469 133.611328,28.1035156 L133.611328,28.1035156 L133.611328,29 L136.037109,29 L136.037109,23.5068359 C136.037109,22.4990234 135.685547,21.6625977 134.982422,20.9975586 C134.279297,20.3325195 133.371094,20 132.257812,20 C131.830078,20 131.411133,20.0629883 131.000977,20.1889648 C130.59082,20.3149414 130.259766,20.4526367 130.007812,20.6020508 C129.755859,20.7514648 129.522949,20.9228516 129.309082,21.1162109 C129.095215,21.3095703 128.95752,21.4458008 128.895996,21.5249023 C128.834473,21.6040039 128.786133,21.6669922 128.750977,21.7138672 L128.750977,21.7138672 L130.095703,23.0585938 L130.297852,22.8476562 C130.432617,22.6894531 130.664062,22.5356445 130.992188,22.3862305 C131.320312,22.2368164 131.683594,22.1621094 132.082031,22.1621094 C132.5625,22.1621094 132.9375,22.2792969 133.207031,22.5136719 C133.476562,22.7480469 133.611328,23.0498047 133.611328,23.4189453 L133.611328,23.4189453 L130.816406,23.9199219 C130.001953,24.0664062 129.363281,24.3798828 128.900391,24.8603516 C128.4375,25.3408203 128.206055,25.9414062 128.206055,26.6621094 C128.206055,27.359375 128.481445,27.9526367 129.032227,28.4418945 C129.583008,28.9311523 130.297852,29.1757812 131.176758,29.1757812 Z M131.80957,27.1982422 C131.030273,27.1982422 130.640625,26.8994141 130.640625,26.3017578 C130.640625,25.7451172 130.97168,25.4140625 131.633789,25.3085938 L131.633789,25.3085938 L133.611328,24.9482422 L133.611328,25.2207031 C133.611328,25.8417969 133.44873,26.3266602 133.123535,26.675293 C132.79834,27.0239258 132.360352,27.1982422 131.80957,27.1982422 Z M139.543945,32.7792969 C141.020508,32.7792969 142.160156,31.6982422 142.962891,29.5361328 L142.962891,29.5361328 L146.469727,20.1757812 L143.956055,20.1757812 L141.881836,26.0292969 L139.816406,20.1757812 L137.293945,20.1757812 L140.712891,28.9121094 L140.44043,29.5361328 C140.15332,30.1982422 139.643555,30.5292969 138.911133,30.5292969 C138.553711,30.5292969 138.254883,30.4707031 138.014648,30.3535156 L138.014648,30.3535156 L138.014648,32.5068359 L138.19043,32.5683594 C138.313477,32.6152344 138.503906,32.6621094 138.761719,32.7089844 C139.019531,32.7558594 139.280273,32.7792969 139.543945,32.7792969 Z" id="GooglePlay"></path>
                        </g>
                    </g>
                </g>
            </g>
        </g>
    </g>
</svg>