<svg width="110" height="80" viewBox="0 0 110 80" fill="none" xmlns="http://www.w3.org/2000/svg">
<path fill-rule="evenodd" clip-rule="evenodd" d="M0 0H10H20H30V10V30V40V60H20V40H10V60H0V40V30V10V0ZM20 30V10H10V30H20ZM40 0H50H60H70V10V30V40H66.6667L70 60H60L56.6667 40H50V60H40V40V30V10V0ZM55 30H60V10H50V30H55ZM0 70H6.8V71.4296H1.52542V74.219H5.68814V75.6416H1.52542V80H0V70ZM23.0357 70L19 80H20.5966L21.6429 77.357H25.9571L27.0034 80H28.6L24.5643 70H23.0357ZM22.2 75.9275L23.8034 71.7852L25.4 75.9275H22.2ZM50.6696 70L46.8966 74.8605L43.1236 70H41.8V80H43.3351V72.7197L46.8966 77.2873L50.4649 72.7197V80H52V70H50.6696ZM66.6 80V70H68.2V80H66.6ZM82.8 80H89V78.5704H84.3147V70H82.8V80ZM103.066 70L105.7 74.7838L108.334 70H110L106.458 76.4296V80H104.935V76.4296L101.4 70H103.066ZM80 0H90H100H110V10V50H105L110 60H90H80V50V10V0ZM90 10H100V50H90V10Z" fill="#4737D6"/>
</svg>
